<?xml version="1.0" encoding="UTF-8"?>
<svg version="1.1" xmlns="http://www.w3.org/2000/svg" width="980" height="980">
<!-- <path d="M0 0 C323.4 0 646.8 0 980 0 C980 323.4 980 646.8 980 980 C656.6 980 333.2 980 0 980 C0 656.6 0 333.2 0 0 Z " fill="#FEFEFE" transform="translate(0,0)"/> -->
<path d="M0 0 C12.21 0 24.42 0 37 0 C37 11.55 37 23.1 37 35 C48.55 35 60.1 35 72 35 C72 58.43 72 81.86 72 106 C83.55 106 95.1 106 107 106 C107 129.43 107 152.86 107 177 C130.43 177 153.86 177 178 177 C178 153.57 178 130.14 178 106 C189.55 106 201.1 106 213 106 C213 82.57 213 59.14 213 35 C224.55 35 236.1 35 248 35 C248 23.45 248 11.9 248 0 C271.76 0 295.52 0 320 0 C320 11.55 320 23.1 320 35 C331.55 35 343.1 35 355 35 C355 58.43 355 81.86 355 106 C366.55 106 378.1 106 390 106 C390 129.43 390 152.86 390 177 C413.43 177 436.86 177 461 177 C461 153.57 461 130.14 461 106 C472.55 106 484.1 106 496 106 C496 82.57 496 59.14 496 35 C507.88 35 519.76 35 532 35 C532 23.45 532 11.9 532 0 C543.55 0 555.1 0 567 0 C567 11.88 567 23.76 567 36 C578.55 36 590.1 36 602 36 C602 140.94 602 245.88 602 354 C590.45 354 578.9 354 567 354 C567 365.88 567 377.76 567 390 C578.55 390 590.1 390 602 390 C602 413.1 602 436.2 602 460 C590.45 460 578.9 460 567 460 C567 471.88 567 483.76 567 496 C379.89 496 192.78 496 0 496 C0 484.45 0 472.9 0 461 C-11.55 461 -23.1 461 -35 461 C-35 437.24 -35 413.48 -35 389 C-23.12 389 -11.24 389 1 389 C1 377.45 1 365.9 1 354 C-10.88 354 -22.76 354 -35 354 C-35 248.73 -35 143.46 -35 35 C-23.45 35 -11.9 35 0 35 C0 23.45 0 11.9 0 0 Z " fill="#FD9505" transform="translate(206,242)"/>
<path d="M0 0 C23.1 0 46.2 0 70 0 C70 23.43 70 46.86 70 71 C81.55 71 93.1 71 105 71 C105 94.43 105 117.86 105 142 C116.88 142 128.76 142 141 142 C141 153.55 141 165.1 141 177 C152.55 177 164.1 177 176 177 C177.02988358 207.26398033 177.11598671 237.46989668 177.0625 267.75 C177.041875 284.3325 177.02125 300.915 177 318 C223.53 318 270.06 318 318 318 C318 329.88 318 341.76 318 354 C329.55 354 341.1 354 353 354 C353 377.1 353 400.2 353 424 C154.67 424 -43.66 424 -248 424 C-248 400.9 -248 377.8 -248 354 C-236.45 354 -224.9 354 -213 354 C-213 342.12 -213 330.24 -213 318 C-142.71 318 -72.42 318 0 318 C0 213.06 0 108.12 0 0 Z " fill="#D36E09" transform="translate(455,278)"/>
<path d="M0 0 C12.21 0 24.42 0 37 0 C37 11.55 37 23.1 37 35 C48.55 35 60.1 35 72 35 C72 58.43 72 81.86 72 106 C83.55 106 95.1 106 107 106 C107 106.33 107 106.66 107 107 C95.45 107 83.9 107 72 107 C72 188.51 72 270.02 72 354 C60.12 354 48.24 354 36 354 C36 365.88 36 377.76 36 390 C24.45 390 12.9 390 1 390 C1 413.1 1 436.2 1 460 C187.78 460 374.56 460 567 460 C567 471.88 567 483.76 567 496 C379.89 496 192.78 496 0 496 C0 484.45 0 472.9 0 461 C-11.55 461 -23.1 461 -35 461 C-35 437.24 -35 413.48 -35 389 C-23.12 389 -11.24 389 1 389 C1 377.45 1 365.9 1 354 C-10.88 354 -22.76 354 -35 354 C-35 248.73 -35 143.46 -35 35 C-23.45 35 -11.9 35 0 35 C0 23.45 0 11.9 0 0 Z " fill="#FB9506" transform="translate(206,242)"/>
<path d="M0 0 C11.55 0 23.1 0 35 0 C35 11.88 35 23.76 35 36 C46.55 36 58.1 36 70 36 C70 140.94 70 245.88 70 354 C11.92 354 -46.16 354 -106 354 C-106.165 337.4175 -106.33 320.835 -106.5 303.75 C-106.55220703 298.59600586 -106.60441406 293.44201172 -106.65820312 288.13183594 C-106.90532317 263.0870971 -107.08158513 238.04600789 -107 213 C-106.67 213 -106.34 213 -106 213 C-106 224.55 -106 236.1 -106 248 C-94.45 248 -82.9 248 -71 248 C-71 201.14 -71 154.28 -71 106 C-59.45 106 -47.9 106 -36 106 C-36 82.57 -36 59.14 -36 35 C-24.12 35 -12.24 35 0 35 C0 23.45 0 11.9 0 0 Z " fill="#FBE600" transform="translate(738,242)"/>
<path d="M0 0 C23.1 0 46.2 0 70 0 C70 23.43 70 46.86 70 71 C81.55 71 93.1 71 105 71 C105 94.43 105 117.86 105 142 C116.88 142 128.76 142 141 142 C141 153.55 141 165.1 141 177 C152.55 177 164.1 177 176 177 C177.02988358 207.26398033 177.11598671 237.46989668 177.0625 267.75 C177.041875 284.3325 177.02125 300.915 177 318 C118.59 318 60.18 318 0 318 C0 213.06 0 108.12 0 0 Z " fill="#FBE600" transform="translate(455,278)"/>
<path d="M0 0 C2.40764228 0.00066076 4.81528457 0.0013034 7.22292686 0.00194407 C47.80260487 0.0128633 88.38227403 0.03289415 128.96194243 0.06315851 C128.96194243 0.39315851 128.96194243 0.72315851 128.96194243 1.06315851 C93.65194243 1.06315851 58.34194243 1.06315851 21.96194243 1.06315851 C21.96194243 24.16315851 21.96194243 47.26315851 21.96194243 71.06315851 C-117.95805757 71.06315851 -257.87805757 71.06315851 -402.03805757 71.06315851 C-402.03805757 47.96315851 -402.03805757 24.86315851 -402.03805757 1.06315851 C-367.47186264 0.88849731 -332.90562797 0.72457044 -298.33932787 0.57220286 C-296.29602867 0.56319366 -294.25272956 0.55416337 -292.20943046 0.54513264 C-215.81627577 0.20796895 -139.42389307 0.00743605 0 0 Z " fill="#FD9505" transform="translate(609.0380575656891,630.9368414878845)"/>
<path d="M0 0 C11.55 0 23.1 0 35 0 C35 11.88 35 23.76 35 36 C23.45 36 11.9 36 0 36 C0 59.1 0 82.2 0 106 C186.78 106 373.56 106 566 106 C566 117.88 566 129.76 566 142 C378.89 142 191.78 142 -1 142 C-1 130.45 -1 118.9 -1 107 C-12.55 107 -24.1 107 -36 107 C-36 83.24 -36 59.48 -36 35 C-24.12 35 -12.24 35 0 35 C0 23.45 0 11.9 0 0 Z " fill="#010000" transform="translate(207,596)"/>
<path d="M0 0 C11.88 0 23.76 0 36 0 C36 11.88 36 23.76 36 36 C24.45 36 12.9 36 1 36 C1 140.94 1 245.88 1 354 C-10.88 354 -22.76 354 -35 354 C-35 248.73 -35 143.46 -35 35 C-23.45 35 -11.9 35 0 35 C0 23.45 0 11.9 0 0 Z " fill="#010001" transform="translate(206,242)"/>
<path d="M0 0 C58.41 0 116.82 0 177 0 C177 23.1 177 46.2 177 70 C118.59 70 60.18 70 0 70 C0 46.9 0 23.8 0 0 Z " fill="#FBE600" transform="translate(631,632)"/>
<path d="M0 0 C58.08 0 116.16 0 176 0 C176 23.1 176 46.2 176 70 C117.92 70 59.84 70 0 70 C0 46.9 0 23.8 0 0 Z " fill="#FBE601" transform="translate(455,632)"/>
<path d="M0 0 C11.55 0 23.1 0 35 0 C35 11.55 35 23.1 35 35 C46.55 35 58.1 35 70 35 C70.98890104 64.05967476 71.12385037 93.07195973 71.06866455 122.14593506 C71.05638883 129.32285515 71.05200233 136.49978435 71.04621124 143.67671204 C71.03667517 154.45115951 71.01745321 165.22554942 71 176 C47.24 176 23.48 176 -1 176 C-0.67 117.92 -0.34 59.84 0 0 Z " fill="#FBFEAC" transform="translate(561,420)"/>
<path d="M0 0 C11.55 0 23.1 0 35 0 C35 104.94 35 209.88 35 318 C23.45 318 11.9 318 0 318 C0 213.06 0 108.12 0 0 Z " fill="#000000" transform="translate(773,278)"/>
<path d="M0 0 C11.55 0 23.1 0 35 0 C35.92202928 51.29476537 36.13095496 102.57222637 36.07202661 153.87449765 C36.06053444 164.06924695 36.05527372 174.26399721 36.05032361 184.45875144 C36.04007241 205.30584325 36.02185511 226.15291691 36 247 C24.12 247 12.24 247 0 247 C0 165.49 0 83.98 0 0 Z " fill="#FAE500" transform="translate(242,349)"/>
<path d="M0 0 C11.55 0 23.1 0 35 0 C35 11.88 35 23.76 35 36 C23.45 36 11.9 36 0 36 C0 59.43 0 82.86 0 107 C-11.55 107 -23.1 107 -35 107 C-35 130.1 -35 153.2 -35 177 C-46.88 177 -58.76 177 -71 177 C-71 153.57 -71 130.14 -71 106 C-59.45 106 -47.9 106 -36 106 C-36 82.57 -36 59.14 -36 35 C-24.12 35 -12.24 35 0 35 C0 23.45 0 11.9 0 0 Z " fill="#010101" transform="translate(738,242)"/>
<path d="M0 0 C11.55 0 23.1 0 35 0 C35 23.1 35 46.2 35 70 C58.43 70 81.86 70 106 70 C106 81.88 106 93.76 106 106 C94.45 106 82.9 106 71 106 C71 117.55 71 129.1 71 141 C59.12 141 47.24 141 35 141 C34.67 117.9 34.34 94.8 34 71 C22.78 70.67 11.56 70.34 0 70 C0 46.9 0 23.8 0 0 Z " fill="#010001" transform="translate(278,349)"/>
<path d="M0 0 C11.55 0 23.1 0 35 0 C35 11.88 35 23.76 35 36 C23.45 36 11.9 36 0 36 C0 59.1 0 82.2 0 106 C186.78 106 373.56 106 566 106 C566 106.33 566 106.66 566 107 C379.22 107 192.44 107 0 107 C0 118.22 0 129.44 0 141 C186.78 141 373.56 141 566 141 C566 141.33 566 141.66 566 142 C378.89 142 191.78 142 -1 142 C-1 130.45 -1 118.9 -1 107 C-12.55 107 -24.1 107 -36 107 C-36 83.24 -36 59.48 -36 35 C-24.12 35 -12.24 35 0 35 C0 23.45 0 11.9 0 0 Z " fill="#4E442C" transform="translate(207,596)"/>
<path d="M0 0 C23.43 0 46.86 0 71 0 C71 23.1 71 46.2 71 70 C47.57 70 24.14 70 0 70 C0 46.9 0 23.8 0 0 Z " fill="#FAE502" transform="translate(207,632)"/>
<path d="M0 0 C23.1 0 46.2 0 70 0 C70 23.1 70 46.2 70 70 C46.57 70 23.14 70 -1 70 C-0.67 46.9 -0.34 23.8 0 0 Z " fill="#FBFEAE" transform="translate(561,632)"/>
<path d="M0 0 C23.43 0 46.86 0 71 0 C71 23.43 71 46.86 71 71 C59.45 71 47.9 71 36 71 C36 59.45 36 47.9 36 36 C24.12 36 12.24 36 0 36 C0 24.12 0 12.24 0 0 Z " fill="#040303" transform="translate(596,419)"/>
<path d="M0 0 C11.55 0 23.1 0 35 0 C35 23.1 35 46.2 35 70 C23.45 70 11.9 70 0 70 C0 46.9 0 23.8 0 0 Z " fill="#FB9505" transform="translate(207,632)"/>
<path d="M0 0 C11.55 0 23.1 0 35 0 C35 23.1 35 46.2 35 70 C23.45 70 11.9 70 0 70 C0 46.9 0 23.8 0 0 Z " fill="#000001" transform="translate(773,632)"/>
<path d="M0 0 C11.55 0 23.1 0 35 0 C35 23.1 35 46.2 35 70 C23.45 70 11.9 70 0 70 C0 46.9 0 23.8 0 0 Z " fill="#010001" transform="translate(172,632)"/>
<path d="M0 0 C11.55 0 23.1 0 35 0 C35 23.1 35 46.2 35 70 C23.45 70 11.9 70 0 70 C0 46.9 0 23.8 0 0 Z " fill="#010101" transform="translate(561,349)"/>
<path d="M0 0 C11.55 0 23.1 0 35 0 C35 23.1 35 46.2 35 70 C23.45 70 11.9 70 0 70 C0 46.9 0 23.8 0 0 Z " fill="#000000" transform="translate(384,349)"/>
<path d="M0 0 C11.55 0 23.1 0 35 0 C35 23.1 35 46.2 35 70 C23.45 70 11.9 70 0 70 C0 46.9 0 23.8 0 0 Z " fill="#040202" transform="translate(242,278)"/>
<path d="M0 0 C23.1 0 46.2 0 70 0 C70 11.55 70 23.1 70 35 C46.9 35 23.8 35 0 35 C0 23.45 0 11.9 0 0 Z " fill="#020202" transform="translate(455,242)"/>
<path d="M0 0 C11.22 0 22.44 0 34 0 C34 23.1 34 46.2 34 70 C22.78 70 11.56 70 0 70 C0 46.9 0 23.8 0 0 Z " fill="#010100" transform="translate(703,278)"/>
<path d="M0 0 C11.22 0 22.44 0 34 0 C34 23.1 34 46.2 34 70 C22.78 70 11.56 70 0 70 C0 46.9 0 23.8 0 0 Z " fill="#010000" transform="translate(526,278)"/>
<path d="M0 0 C11.22 0 22.44 0 34 0 C34 23.1 34 46.2 34 70 C22.78 70 11.56 70 0 70 C0 46.9 0 23.8 0 0 Z " fill="#010101" transform="translate(420,278)"/>
<path d="M0 0 C11.88 0 23.76 0 36 0 C36 11.88 36 23.76 36 36 C24.45 36 12.9 36 1 36 C1 140.94 1 245.88 1 354 C-0.32 353.67 -1.64 353.34 -3 353 C-2.67 352.01 -2.34 351.02 -2 350 C-1.90860597 348.24423264 -1.87625144 346.48514645 -1.87695217 344.72700214 C-1.87496112 343.62724279 -1.87297007 342.52748343 -1.87091869 341.39439803 C-1.87383153 340.18137879 -1.87674437 338.96835955 -1.87974548 337.71858215 C-1.87846385 335.79138408 -1.87846385 335.79138408 -1.87715632 333.82525271 C-1.87491459 330.25192538 -1.87892826 326.67862789 -1.88393438 323.10530436 C-1.88824329 319.25460537 -1.88679214 315.40390812 -1.8860321 311.5532074 C-1.88550715 304.87923088 -1.88865098 298.20526412 -1.89426994 291.53129005 C-1.90238879 281.88178327 -1.90500056 272.23228121 -1.90625793 262.58277138 C-1.90844785 246.92798098 -1.91510629 231.27319578 -1.92456055 215.6184082 C-1.93373623 200.40909857 -1.9408163 185.19979035 -1.94506836 169.99047852 C-1.94533108 169.05335007 -1.94559381 168.11622163 -1.94586449 167.15069536 C-1.94716951 162.4495089 -1.94843322 157.74832243 -1.94967639 153.04713595 C-1.96004712 114.03142014 -1.97793854 75.01571082 -2 36 C-12.56 36 -23.12 36 -34 36 C-34 140.94 -34 245.88 -34 354 C-34.33 354 -34.66 354 -35 354 C-35 248.73 -35 143.46 -35 35 C-23.45 35 -11.9 35 0 35 C0 23.45 0 11.9 0 0 Z " fill="#020202" transform="translate(206,242)"/>
<path d="M0 0 C11.55 0 23.1 0 35 0 C35 104.94 35 209.88 35 318 C-11.53 318 -58.06 318 -106 318 C-106.165 301.4175 -106.33 284.835 -106.5 267.75 C-106.55220703 262.59600586 -106.60441406 257.44201172 -106.65820312 252.13183594 C-106.90532317 227.0870971 -107.08158513 202.04600789 -107 177 C-106.67 177 -106.34 177 -106 177 C-106 188.55 -106 200.1 -106 212 C-94.45 212 -82.9 212 -71 212 C-71 188.57 -71 165.14 -71 141 C-59.12 141 -47.24 141 -35 141 C-35 117.9 -35 94.8 -35 71 C-23.45 71 -11.9 71 0 71 C0 47.57 0 24.14 0 0 Z M2 3 C1.93039148 4.93791836 1.93254226 6.87844462 1.96240234 8.81738281 C1.97927094 10.0624762 1.99613953 11.30756958 2.01351929 12.59039307 C2.03741499 13.96130798 2.0615606 15.33221856 2.0859375 16.703125 C2.10770257 18.10218839 2.12915229 19.50125672 2.15029907 20.90032959 C2.19588045 23.83937872 2.24510039 26.77833878 2.296875 29.71728516 C2.36286045 33.47764496 2.42024253 37.23807582 2.47490501 40.99861526 C2.51785975 43.89149816 2.56526113 46.7842952 2.61400223 49.67708588 C2.63685104 51.06289298 2.65836603 52.44872276 2.67850876 53.83457184 C2.70746019 55.77813284 2.74300097 57.72159228 2.77880859 59.66503906 C2.80664932 61.32264252 2.80664932 61.32264252 2.83505249 63.01373291 C2.98761978 65.77586424 3.37818118 68.30889959 4 71 C-7.71750827 74.90583609 -20.64866179 73 -33 73 C-33 95.77 -33 118.54 -33 142 C-49.335 142.495 -49.335 142.495 -66 143 C-66.99 143.33 -67.98 143.66 -69 144 C-69 165.78 -69 187.56 -69 210 C-68.01 210 -67.02 210 -66 210 C-66 210.66 -66 211.32 -66 212 C-67.65 212.33 -69.3 212.66 -71 213 C-71 213.99 -71 214.98 -71 216 C-71.73992188 215.84273437 -72.47984375 215.68546875 -73.2421875 215.5234375 C-78.5388503 214.78564871 -83.78281812 214.69537605 -89.125 214.625 C-90.75115234 214.56892578 -90.75115234 214.56892578 -92.41015625 214.51171875 C-93.45300781 214.50011719 -94.49585938 214.48851562 -95.5703125 214.4765625 C-96.51664551 214.45674316 -97.46297852 214.43692383 -98.43798828 214.41650391 C-102.1168135 215.25435337 -102.99041784 216.85656553 -105 220 C-105.58368528 223.48868423 -105.58368528 223.48868423 -105.4699707 227.36621094 C-105.4721611 228.09065903 -105.4743515 228.81510712 -105.47660828 229.56150818 C-105.47891579 231.95293149 -105.45265401 234.34311577 -105.42578125 236.734375 C-105.42084967 238.41285818 -105.4175558 240.0913469 -105.41581726 241.76983643 C-105.40817653 245.29383865 -105.38763625 248.8174349 -105.35668945 252.34130859 C-105.31748091 256.80896591 -105.29913524 261.27635777 -105.28938007 265.74416733 C-105.27927731 270.05343763 -105.25950014 274.36264708 -105.23828125 278.671875 C-105.2348855 279.47161491 -105.23148975 280.27135483 -105.2279911 281.09532928 C-105.18462962 289.58159779 -105.01640635 298.04604756 -104.54760742 306.52050781 C-104.50928708 307.24400799 -104.47096674 307.96750816 -104.43148518 308.71293259 C-104.24067634 312.48194877 -104.24067634 312.48194877 -103 316 C-69.01 316 -35.02 316 0 316 C0 315.34 0 314.68 0 314 C1.98 314.66 3.96 315.32 6 316 C6.33 315.67 6.66 315.34 7 315 C8.76733176 314.85447268 10.54000994 314.77277531 12.3125 314.71875 C13.38757813 314.68136719 14.46265625 314.64398437 15.5703125 314.60546875 C17.85677083 314.53515625 20.14322917 314.46484375 22.4296875 314.39453125 C23.50476563 314.35714844 24.57984375 314.31976562 25.6875 314.28125 C26.68136719 314.25095703 27.67523437 314.22066406 28.69921875 314.18945312 C30.96283986 314.25272441 30.96283986 314.25272441 32 313 C32.0989039 311.37925337 32.12739506 309.7541751 32.12863445 308.13041401 C32.13347112 306.53932425 32.13347112 306.53932425 32.1384055 304.91609126 C32.1368569 303.73635759 32.1353083 302.55662392 32.13371277 301.34114075 C32.1371111 299.477984 32.1371111 299.477984 32.14057809 297.57718772 C32.14583684 294.11353365 32.14655897 290.64993123 32.14538372 287.18627679 C32.14518046 283.45676126 32.15069138 279.7272536 32.15544128 275.9977417 C32.16376563 268.68391198 32.16649696 261.37009033 32.16705366 254.05625627 C32.16752812 248.11191695 32.16957935 242.16758029 32.17275429 236.22324181 C32.18156688 219.38159642 32.18617289 202.53995741 32.18542381 185.6983097 C32.18538386 184.78941779 32.1853439 183.88052588 32.18530273 182.9440918 C32.18524141 181.57909458 32.18524141 181.57909458 32.18517885 180.18652167 C32.18477254 165.44371407 32.19433676 150.70093203 32.2084411 135.95813183 C32.22279853 120.83172338 32.22971159 105.7053274 32.22884732 90.57891196 C32.22851506 82.08212086 32.23127467 73.58535653 32.24202538 65.08857155 C32.25112221 57.85227206 32.25331248 50.61601147 32.24651595 43.37970874 C32.24324618 39.68687034 32.24321041 35.9941066 32.2518692 32.30127525 C32.26115768 28.29871921 32.25496982 24.29633676 32.24723816 20.29377747 C32.2549535 18.54090737 32.2549535 18.54090737 32.26282471 16.75262576 C32.24013291 11.45435281 32.17944063 6.94006022 30 2 C25.52084672 1.97113662 21.04171709 1.95324813 16.5625 1.9375 C15.28310547 1.92912109 14.00371094 1.92074219 12.68554688 1.91210938 C11.47060547 1.90888672 10.25566406 1.90566406 9.00390625 1.90234375 C7.87799072 1.89710693 6.7520752 1.89187012 5.59204102 1.88647461 C3.07029129 1.70454552 3.07029129 1.70454552 2 3 Z " fill="#F3E01D" transform="translate(738,278)"/>
<path d="M0 0 C0.99326644 -0.00199105 1.98653288 -0.0039821 3.0098983 -0.00603348 C4.10910194 -0.00312064 5.20830557 -0.0002078 6.34081841 0.00279331 C7.50225613 0.00193889 8.66369385 0.00108446 9.86032665 0.00020415 C13.0938697 -0.00116248 16.32737306 0.00197912 19.56091142 0.00698221 C23.04420807 0.01128794 26.52750276 0.0098402 30.01080132 0.00907993 C36.04909647 0.00855478 42.08738085 0.01170072 48.12567329 0.01731777 C56.85610344 0.02543389 65.58652836 0.02804811 74.31696187 0.02930576 C88.48042441 0.03149611 102.6438812 0.03815572 116.80734062 0.04760838 C130.56840804 0.05678295 144.32947389 0.06386356 158.09054375 0.06811619 C158.93832504 0.06837891 159.78610634 0.06864164 160.65957798 0.06891232 C164.91251294 0.07021733 169.16544791 0.07148104 173.41838288 0.07272422 C208.71844972 0.08309629 244.01850987 0.10071413 279.31857109 0.12304783 C279.31857109 0.45304783 279.31857109 0.78304783 279.31857109 1.12304783 C185.92857109 1.12304783 92.53857109 1.12304783 -3.68142891 1.12304783 C-3.68142891 24.22304783 -3.68142891 47.32304783 -3.68142891 71.12304783 C-62.09142891 71.12304783 -120.50142891 71.12304783 -180.68142891 71.12304783 C-180.68142891 48.02304783 -180.68142891 24.92304783 -180.68142891 1.12304783 C-179.69142891 1.45304783 -178.70142891 1.78304783 -177.68142891 2.12304783 C-177.84441475 3.0203159 -178.00740059 3.91758396 -178.17532539 4.84204197 C-178.96551939 10.41103236 -178.80438432 16.00640525 -178.77908516 21.61914158 C-178.77767021 22.80782337 -178.77625526 23.99650517 -178.77479744 25.22120762 C-178.76922005 29.00101377 -178.75667166 32.78075971 -178.74392891 36.56054783 C-178.73891099 39.13020843 -178.73434859 41.69986996 -178.73025703 44.2695322 C-178.71925802 50.5540578 -178.70254241 56.83854851 -178.68142891 63.12304783 C-156.5852746 63.16973966 -134.48912841 63.20502285 -112.3929348 63.22667217 C-102.13361399 63.23699088 -91.87432381 63.25106257 -81.61502266 63.27392673 C-72.67447666 63.29384241 -63.73395283 63.30675994 -54.79338527 63.31122482 C-50.05811426 63.31383529 -45.32290672 63.31998338 -40.58765602 63.33450794 C-36.13244867 63.34806306 -31.67733104 63.35227467 -27.22210503 63.34926319 C-25.58542201 63.34981428 -23.94873605 63.35380405 -22.31207085 63.36145878 C-20.08003786 63.37138769 -17.84834502 63.36902433 -15.6163044 63.36355686 C-14.36635311 63.36540045 -13.11640182 63.36724403 -11.82857323 63.36914349 C-8.85027972 63.13625137 -7.1800697 62.69404768 -4.68142891 61.12304783 C-5.01142891 60.46304783 -5.34142891 59.80304783 -5.68142891 59.12304783 C-5.80112952 57.27523241 -5.85869851 55.42325423 -5.88675117 53.5717783 C-5.9066964 52.41072575 -5.92664162 51.24967319 -5.94719124 50.05343723 C-5.97225998 48.16590229 -5.97225998 48.16590229 -5.99783516 46.24023533 C-6.01861626 44.95569462 -6.03939735 43.67115391 -6.06080818 42.34768772 C-6.1160194 38.93155424 -6.16543279 35.51536038 -6.21365547 32.09912205 C-6.26387748 28.61355302 -6.31955988 25.12807174 -6.37478828 21.64257908 C-6.48235819 14.80281141 -6.58380575 7.96296449 -6.68142891 1.12304783 C-4.25146741 -0.09193292 -2.71602568 -0.00119649 0 0 Z " fill="#F29911" transform="translate(458.68142890930176,630.8769521713257)"/>
<path d="M0 0 C11.55 0 23.1 0 35 0 C35 11.88 35 23.76 35 36 C23.45 36 11.9 36 0 36 C0 59.43 0 82.86 0 107 C-11.55 107 -23.1 107 -35 107 C-35 130.1 -35 153.2 -35 177 C-46.88 177 -58.76 177 -71 177 C-71 153.57 -71 130.14 -71 106 C-59.45 106 -47.9 106 -36 106 C-36 82.57 -36 59.14 -36 35 C-24.12 35 -12.24 35 0 35 C0 23.45 0 11.9 0 0 Z M-35 36 C-35 59.1 -35 82.2 -35 106 C-23.78 106 -12.56 106 -1 106 C-1 82.9 -1 59.8 -1 36 C-12.22 36 -23.44 36 -35 36 Z M-70 107 C-70 129.11 -70 151.22 -70 174 C-67.14992869 175.42503565 -64.71379745 175.12980035 -61.53125 175.1328125 C-60.23832031 175.13410156 -58.94539062 175.13539063 -57.61328125 175.13671875 C-56.60128662 175.13357666 -56.60128662 175.13357666 -55.56884766 175.13037109 C-53.50806311 175.12502093 -51.44749651 175.13032035 -49.38671875 175.13671875 C-47.44732422 175.13478516 -47.44732422 175.13478516 -45.46875 175.1328125 C-43.68114258 175.13112061 -43.68114258 175.13112061 -41.85742188 175.12939453 C-39.05409934 175.19633896 -39.05409934 175.19633896 -37 174 C-37 173.20486496 -37 172.40972992 -37 171.59049988 C-37 150.06033325 -37 128.53016663 -37 107 C-47.89 107 -58.78 107 -70 107 Z " fill="#070601" transform="translate(738,242)"/>
<path d="M0 0 C11.55 0 23.1 0 35 0 C35.92202928 51.29476537 36.13095496 102.57222637 36.07202661 153.87449765 C36.06053444 164.06924695 36.05527372 174.26399721 36.05032361 184.45875144 C36.04007241 205.30584325 36.02185511 226.15291691 36 247 C24.12 247 12.24 247 0 247 C0 165.49 0 83.98 0 0 Z M3 3 C2.88951173 6.10946891 2.84502251 9.19720058 2.84178162 12.30751038 C2.83684364 13.29658447 2.83190566 14.28565857 2.82681805 15.30470461 C2.81136042 18.64592432 2.80306018 21.98712471 2.79467773 25.32836914 C2.78510569 27.71272453 2.77509603 30.0970782 2.76467896 32.48143005 C2.74037281 38.30130135 2.72065708 44.12117539 2.70292621 49.94107015 C2.68205754 56.71056729 2.65558823 63.48003893 2.62875474 70.24951463 C2.58104749 82.32266182 2.53779183 94.39582071 2.49731445 106.46899414 C2.45797544 118.19979769 2.41655307 129.93059081 2.37231445 141.66137695 C2.36959018 142.38396716 2.36686591 143.10655737 2.36405908 143.85104425 C2.35037987 147.47591898 2.33665954 151.10079357 2.32291877 154.72566807 C2.2089048 184.81709039 2.10218017 214.90853503 2 245 C6.07510438 245.0247345 10.15017964 245.04287637 14.2253418 245.05493164 C15.61141725 245.05995777 16.99748741 245.06677966 18.38354492 245.07543945 C20.37676715 245.08758018 22.37002819 245.09271021 24.36328125 245.09765625 C26.16212769 245.10551147 26.16212769 245.10551147 27.99731445 245.11352539 C31.05156451 245.13845618 31.05156451 245.13845618 34 244 C34.02377782 222.61801301 34.0411922 201.23602831 34.05181217 179.85403061 C34.0568829 169.91716813 34.06377058 159.98031413 34.07543945 150.04345703 C34.12001773 111.23877441 34.14180279 72.43674605 33.59018397 33.63515186 C33.55877335 31.4033859 33.52896308 29.17160292 33.49940681 26.93981171 C33.4448931 22.88714899 33.38069698 18.8347108 33.31420898 14.78222656 C33.29768972 13.588386 33.28117046 12.39454544 33.26415062 11.16452789 C33.24440996 10.09237785 33.2246693 9.02022781 33.20433044 7.91558838 C33.18897468 6.98351688 33.17361891 6.05144539 33.15779781 5.0911293 C33.22940681 3.01210858 33.22940681 3.01210858 32 2 C29.9394469 1.90006468 27.8754741 1.86919094 25.8125 1.8671875 C24.55695313 1.86589844 23.30140625 1.86460937 22.0078125 1.86328125 C21.02216309 1.86642334 21.02216309 1.86642334 20.01660156 1.86962891 C18.00838665 1.87497766 16.00039541 1.86968309 13.9921875 1.86328125 C12.73664063 1.86457031 11.48109375 1.86585938 10.1875 1.8671875 C9.02605469 1.86831543 7.86460937 1.86944336 6.66796875 1.87060547 C4.07936716 1.69662526 4.07936716 1.69662526 3 3 Z " fill="#FED516" transform="translate(242,349)"/>
<path d="M0 0 C11.55 0 23.1 0 35 0 C35 11.88 35 23.76 35 36 C23.45 36 11.9 36 0 36 C0 24.12 0 12.24 0 0 Z " fill="#010001" transform="translate(207,596)"/>
<path d="M0 0 C11.55 0 23.1 0 35 0 C35 11.88 35 23.76 35 36 C23.45 36 11.9 36 0 36 C0 24.12 0 12.24 0 0 Z " fill="#020102" transform="translate(738,596)"/>
<path d="M0 0 C0.33 0 0.66 0 1 0 C1 11.55 1 23.1 1 35 C12.55 35 24.1 35 36 35 C36 58.43 36 81.86 36 106 C47.55 106 59.1 106 71 106 C71 106.33 71 106.66 71 107 C59.45 107 47.9 107 36 107 C36 130.1 36 153.2 36 177 C35.67 177 35.34 177 35 177 C35 153.9 35 130.8 35 107 C23.45 107 11.9 107 0 107 C0 187.19 0 267.38 0 350 C-0.66 350 -1.32 350 -2 350 C-2 247.04 -2 144.08 -2 38 C-12.56 37.67 -23.12 37.34 -34 37 C-34 141.28 -34 245.56 -34 353 C-22.78 353 -11.56 353 0 353 C0 353.33 0 353.66 0 354 C-11.55 354 -23.1 354 -35 354 C-35 249.06 -35 144.12 -35 36 C-23.45 36 -11.9 36 0 36 C0 24.12 0 12.24 0 0 Z M0 36 C0 59.1 0 82.2 0 106 C11.55 106 23.1 106 35 106 C35 82.9 35 59.8 35 36 C23.45 36 11.9 36 0 36 Z " fill="#E0981E" transform="translate(242,242)"/>
<path d="M0 0 C11.55 0 23.1 0 35 0 C35 104.94 35 209.88 35 318 C23.45 318 11.9 318 0 318 C0 317.67 0 317.34 0 317 C10.89 317 21.78 317 33 317 C33.33 213.05 33.66 109.1 34 2 C32.68 2.33 31.36 2.66 30 3 C21.09 3 12.18 3 3 3 C3.33 25.11 3.66 47.22 4 70 C4.66 70.33 5.32 70.66 6 71 C0 74 0 74 -33 73 C-33 95.77 -33 118.54 -33 142 C-36.75404015 142.93851004 -39.81589485 143.18256558 -43.6640625 143.28125 C-44.95054687 143.31863281 -46.23703125 143.35601562 -47.5625 143.39453125 C-49.60120879 143.44825931 -51.63995399 143.50038043 -53.67871094 143.55224609 C-55.65309779 143.60395397 -57.62733534 143.66126748 -59.6015625 143.71875 C-60.78057129 143.74904297 -61.95958008 143.77933594 -63.17431641 143.81054688 C-65.94966942 143.81384403 -65.94966942 143.81384403 -68 145 C-68.33 166.45 -68.66 187.9 -69 210 C-68.01 210 -67.02 210 -66 210 C-66 210.66 -66 211.32 -66 212 C-69.88461047 213.29487016 -73.55883956 213.1232604 -77.60546875 213.09765625 C-78.44467361 213.0962413 -79.28387848 213.09482635 -80.14851379 213.09336853 C-82.82821216 213.08777215 -85.5078269 213.07522035 -88.1875 213.0625 C-90.00455608 213.05748453 -91.82161348 213.05292171 -93.63867188 213.04882812 C-98.09250604 213.03865491 -102.54615943 213.0190788 -107 213 C-107 201.12 -107 189.24 -107 177 C-106.67 177 -106.34 177 -106 177 C-106 188.55 -106 200.1 -106 212 C-94.45 212 -82.9 212 -71 212 C-71 188.57 -71 165.14 -71 141 C-59.12 141 -47.24 141 -35 141 C-35 117.9 -35 94.8 -35 71 C-23.45 71 -11.9 71 0 71 C0 47.57 0 24.14 0 0 Z " fill="#E4DC41" transform="translate(738,278)"/>
<path d="M0 0 C23.1 0 46.2 0 70 0 C70 23.43 70 46.86 70 71 C81.55 71 93.1 71 105 71 C105.90422598 122.35534637 106.13182293 173.69316444 106.07202661 225.05576003 C106.06052573 235.12235795 106.05527171 245.18895687 106.05032361 255.2555598 C106.04007823 275.83704723 106.02268125 296.41852274 106 317 C105.34 316.67 104.68 316.34 104 316 C104 235.48 104 154.96 104 72 C93.44 72 82.88 72 72 72 C71.67 72.66 71.34 73.32 71 74 C70.34 74 69.68 74 69 74 C69 73.01 69 72.02 69 71 C67.02 70.01 67.02 70.01 65 69 C65.32688309 68.13353348 65.65376617 67.26706696 65.99055481 66.37434387 C66.99716901 63.00946335 67.2172018 60.50219931 67.15112305 57.01049805 C67.12570686 55.27421394 67.12570686 55.27421394 67.09977722 53.50285339 C67.07071793 52.26827896 67.04165863 51.03370453 67.01171875 49.76171875 C66.97773735 47.84695488 66.97773735 47.84695488 66.94306946 45.89350891 C66.89320428 43.20277558 66.83940071 40.51249192 66.77856445 37.82202148 C66.70065927 34.36750949 66.63644901 30.91291341 66.57690716 27.45804119 C66.51910829 24.16332134 66.45284297 20.86878054 66.38671875 17.57421875 C66.36373215 16.32952316 66.34074554 15.08482758 66.31706238 13.80241394 C66.29066177 12.66065201 66.26426117 11.51889008 66.23706055 10.3425293 C66.20469551 8.8274604 66.20469551 8.8274604 66.17167664 7.28178406 C66.25198711 5.03463292 66.25198711 5.03463292 65 4 C58.15018198 3.01250559 51.41966211 2.85341601 44.5078125 2.8671875 C43.44005585 2.86623077 42.37229919 2.86527405 41.27218628 2.86428833 C39.03171733 2.86361171 36.79124637 2.86542965 34.55078125 2.86962891 C31.11453911 2.8750164 27.67842579 2.8696501 24.2421875 2.86328125 C22.05989554 2.8639415 19.87760367 2.86522157 17.6953125 2.8671875 C16.66721466 2.86516327 15.63911682 2.86313904 14.5798645 2.86105347 C13.15225296 2.86578171 13.15225296 2.86578171 11.69580078 2.87060547 C10.44079269 2.87179886 10.44079269 2.87179886 9.16043091 2.87301636 C6.81604544 2.9168636 6.81604544 2.9168636 4 4 C3.67 4.66 3.34 5.32 3 6 C4.98 6 6.96 6 9 6 C9 6.66 9 7.32 9 8 C7.02 8 5.04 8 3 8 C3.33 28.46 3.66 48.92 4 70 C2.02 70.99 2.02 70.99 0 72 C0 48.24 0 24.48 0 0 Z " fill="#EFE635" transform="translate(455,278)"/>
<path d="M0 0 C0.33 0 0.66 0 1 0 C1 116.82 1 233.64 1 354 C-0.32 353.67 -1.64 353.34 -3 353 C-2.67 352.01 -2.34 351.02 -2 350 C-1.90860597 348.24423264 -1.87625144 346.48514645 -1.87695217 344.72700214 C-1.87496112 343.62724279 -1.87297007 342.52748343 -1.87091869 341.39439803 C-1.87383153 340.18137879 -1.87674437 338.96835955 -1.87974548 337.71858215 C-1.87846385 335.79138408 -1.87846385 335.79138408 -1.87715632 333.82525271 C-1.87491459 330.25192538 -1.87892826 326.67862789 -1.88393438 323.10530436 C-1.88824329 319.25460537 -1.88679214 315.40390812 -1.8860321 311.5532074 C-1.88550715 304.87923088 -1.88865098 298.20526412 -1.89426994 291.53129005 C-1.90238879 281.88178327 -1.90500056 272.23228121 -1.90625793 262.58277138 C-1.90844785 246.92798098 -1.91510629 231.27319578 -1.92456055 215.6184082 C-1.93373623 200.40909857 -1.9408163 185.19979035 -1.94506836 169.99047852 C-1.94533108 169.05335007 -1.94559381 168.11622163 -1.94586449 167.15069536 C-1.94716951 162.4495089 -1.94843322 157.74832243 -1.94967639 153.04713595 C-1.96004712 114.03142014 -1.97793854 75.01571082 -2 36 C-12.56 36 -23.12 36 -34 36 C-34 140.94 -34 245.88 -34 354 C-34.33 354 -34.66 354 -35 354 C-35 248.73 -35 143.46 -35 35 C-23.45 35 -11.9 35 0 35 C0 23.45 0 11.9 0 0 Z " fill="#4F3A31" transform="translate(206,242)"/>
<path d="M0 0 C0.99 0 1.98 0 3 0 C3 104.94 3 209.88 3 318 C2.01 318 1.02 318 0 318 C0 213.06 0 108.12 0 0 Z " fill="#1E1403" transform="translate(773,278)"/>
<path d="M0 0 C46.86 0 93.72 0 142 0 C142 23.1 142 46.2 142 70 C95.14 70 48.28 70 0 70 C0 46.9 0 23.8 0 0 Z M3 2 C1.88043785 7.86117912 1.85460226 13.62549647 1.8671875 19.578125 C1.86623077 20.58534607 1.86527405 21.59256714 1.86428833 22.63031006 C1.86361009 24.75500552 1.86543946 26.87970309 1.86962891 29.00439453 C1.87495968 32.22563436 1.86968334 35.44673335 1.86328125 38.66796875 C1.86394253 40.7421878 1.86522473 42.81640677 1.8671875 44.890625 C1.86516327 45.83995911 1.86313904 46.78929321 1.86105347 47.76739502 C1.88323954 54.22545694 2.31801286 60.5787241 3 67 C6.87640119 67.71783646 10.54426165 68.12536832 14.48478699 68.12698364 C15.5488829 68.12980347 16.61297882 68.13262329 17.70932007 68.13552856 C18.86122833 68.13350433 20.0131366 68.1314801 21.19995117 68.12939453 C23.03746193 68.13202301 23.03746193 68.13202301 24.91209412 68.13470459 C28.2589628 68.13834357 31.60576941 68.13750231 34.95263457 68.1343255 C38.4586023 68.13178785 41.96456744 68.1341432 45.47053528 68.13571167 C51.35397822 68.13752854 57.23740858 68.13513896 63.12084961 68.13037109 C69.92373922 68.12492181 76.72659889 68.1266979 83.52948779 68.1321975 C89.37419586 68.13673332 95.21889491 68.1373771 101.06360418 68.13475883 C104.55291282 68.13319962 108.04220738 68.13299272 111.53151512 68.13629532 C115.41709944 68.13971654 119.30265009 68.13497664 123.18823242 68.12939453 C124.92520386 68.13243088 124.92520386 68.13243088 126.69726562 68.13552856 C127.75290207 68.13270874 128.80853851 68.12988892 129.89616394 68.12698364 C130.81477298 68.12660662 131.73338202 68.12622959 132.67982769 68.12584114 C135.15888212 68.09391965 135.15888212 68.09391965 138 67 C138.86387807 63.27387562 139.12170823 59.83774336 139.11352539 56.01635742 C139.11344986 54.83551071 139.11337433 53.654664 139.11329651 52.43803406 C139.10813522 51.17328751 139.10297394 49.90854095 139.09765625 48.60546875 C139.0962413 47.30297684 139.09482635 46.00048492 139.09336853 44.65852356 C139.08956355 41.20783546 139.07975064 37.75718992 139.06866455 34.30651855 C139.05840689 30.78052343 139.0538616 27.25452139 139.04882812 23.72851562 C139.03812644 16.81899124 139.02054612 9.90950205 139 3 C132.73 3 126.46 3 120 3 C119.34 4.32 118.68 5.64 118 7 C117.01 7.33 116.02 7.66 115 8 C115 6.02 115 4.04 115 2 C114.05125 2.020625 113.1025 2.04125 112.125 2.0625 C109 2 109 2 107 1 C105.62117864 0.90630528 104.2379427 0.8737052 102.85594177 0.87301636 C101.98797974 0.87019653 101.1200177 0.86737671 100.22575378 0.86447144 C99.27138931 0.86649567 98.31702484 0.8685199 97.33374023 0.87060547 C96.33043671 0.86885315 95.32713318 0.86710083 94.29342651 0.86529541 C90.96513152 0.86088112 87.63688932 0.8638132 84.30859375 0.8671875 C82.00456227 0.86651439 79.70053087 0.86554431 77.39649963 0.86428833 C72.56356125 0.86281197 67.73064132 0.86496413 62.89770508 0.86962891 C56.68748985 0.87532934 50.4773178 0.87204479 44.26710415 0.86605644 C39.50864839 0.86245188 34.75020296 0.86358888 29.9917469 0.86618423 C27.70109108 0.86685363 25.41043433 0.86602465 23.11977959 0.86370468 C19.92544934 0.86117953 16.73119016 0.86501666 13.53686523 0.87060547 C12.58047653 0.86858124 11.62408783 0.86655701 10.63871765 0.86447144 C9.77357544 0.86729126 8.90843323 0.87011108 8.01707458 0.87301636 C7.2610366 0.87339338 6.50499861 0.87377041 5.72605038 0.87415886 C3.96887858 0.81318196 3.96887858 0.81318196 3 2 Z " fill="#F2E218" transform="translate(631,632)"/>
<path d="M0 0 C0.33 0 0.66 0 1 0 C1 11.55 1 23.1 1 35 C24.1 35 47.2 35 71 35 C71 23.45 71 11.9 71 0 C71.33 0 71.66 0 72 0 C72 11.55 72 23.1 72 35 C83.55 35 95.1 35 107 35 C107 58.43 107 81.86 107 106 C118.55 106 130.1 106 142 106 C142 106.33 142 106.66 142 107 C130.45 107 118.9 107 107 107 C107 130.1 107 153.2 107 177 C118.55 177 130.1 177 142 177 C142 177.33 142 177.66 142 178 C130.12 178 118.24 178 106 178 C106 154.57 106 131.14 106 107 C94.45 107 82.9 107 71 107 C71 83.57 71 60.14 71 36 C47.9 36 24.8 36 1 36 C1 59.43 1 82.86 1 107 C-10.55 107 -22.1 107 -34 107 C-34 130.1 -34 153.2 -34 177 C-34.33 177 -34.66 177 -35 177 C-35 153.9 -35 130.8 -35 107 C-46.55 107 -58.1 107 -70 107 C-70 106.67 -70 106.34 -70 106 C-58.45 106 -46.9 106 -35 106 C-35 82.57 -35 59.14 -35 35 C-23.45 35 -11.9 35 0 35 C0 23.45 0 11.9 0 0 Z M-34 36 C-34 59.1 -34 82.2 -34 106 C-22.78 106 -11.56 106 0 106 C0 82.9 0 59.8 0 36 C-11.22 36 -22.44 36 -34 36 Z M72 36 C72 59.1 72 82.2 72 106 C83.22 106 94.44 106 106 106 C106 82.9 106 59.8 106 36 C94.78 36 83.56 36 72 36 Z " fill="#6D6B34" transform="translate(454,242)"/>
<path d="M0 0 C11.55 0 23.1 0 35 0 C35 23.1 35 46.2 35 70 C58.43 70 81.86 70 106 70 C106 81.88 106 93.76 106 106 C94.45 106 82.9 106 71 106 C71 117.55 71 129.1 71 141 C59.12 141 47.24 141 35 141 C34.67 117.9 34.34 94.8 34 71 C22.78 70.67 11.56 70.34 0 70 C0 46.9 0 23.8 0 0 Z M4 2 C3.67 23.78 3.34 45.56 3 68 C18.76527421 69.13469331 18.76527421 69.13469331 34 67 C34 45.55 34 24.1 34 2 C24.1 2 14.2 2 4 2 Z M36 71 C36 93.77 36 116.54 36 140 C47.22 140 58.44 140 70 140 C70.33 128.12 70.66 116.24 71 104 C82.22 104 93.44 104 105 104 C105 93.11 105 82.22 105 71 C82.23 71 59.46 71 36 71 Z " fill="#0A0400" transform="translate(278,349)"/>
<path d="M0 0 C0.80227031 2.82173438 1.12119304 5.31045964 1.10743046 8.24036026 C1.10593811 9.08433939 1.10444576 9.92831852 1.10290819 10.79787278 C1.0961044 11.72004901 1.08930061 12.64222523 1.08229065 13.59234619 C1.07906152 14.57581646 1.07583239 15.55928672 1.07250541 16.57255912 C1.06041565 19.87686241 1.04104573 23.1810832 1.02172852 26.48535156 C1.01158729 28.85044169 1.00189345 31.21553377 0.99261475 33.58062744 C0.96611816 40.00996446 0.93334177 46.43925613 0.89946485 52.86855793 C0.86812956 58.90426706 0.8424342 64.94000125 0.81623887 70.97573444 C0.764201 82.93078326 0.70762234 94.88580612 0.64819336 106.84082031 C0.59047292 118.45409128 0.53488775 130.06736923 0.48217773 141.68066406 C0.47730316 142.75440613 0.47730316 142.75440613 0.4723301 143.84983996 C0.45604042 147.44093436 0.43979276 151.03202896 0.42356598 154.62312365 C0.28889159 184.41544776 0.14677458 214.20773293 0 244 C2.72501408 244.90833803 4.35167298 245.13357806 7.15715027 245.15821838 C8.00268967 245.1680072 8.84822906 245.17779602 9.71939087 245.18788147 C10.64367889 245.19363693 11.56796692 245.1993924 12.52026367 245.20532227 C13.49605881 245.21522186 14.47185394 245.22512146 15.47721863 245.23532104 C18.70744386 245.26694671 21.93768381 245.29169777 25.16796875 245.31640625 C27.40570969 245.33697485 29.64344674 245.3579713 31.88117981 245.37937927 C37.77481943 245.43460963 43.66849417 245.4840147 49.56219482 245.53222656 C55.57469819 245.58243451 61.58715047 245.63812427 67.59960938 245.69335938 C79.39969596 245.80095276 91.19982687 245.90239515 103 246 C103 246.66 103 247.32 103 248 C68.35 248 33.7 248 -2 248 C-2.04405991 216.69509455 -2.08100012 185.39021893 -2.10213066 154.08529217 C-2.10463219 150.39263613 -2.10722082 146.69998016 -2.10986328 143.00732422 C-2.1103879 142.27215761 -2.11091252 141.53699099 -2.11145304 140.7795466 C-2.12016464 128.86307926 -2.13593875 116.94663115 -2.15430559 105.03017522 C-2.17298368 92.81021267 -2.18411228 80.59026021 -2.18817699 68.37028396 C-2.1909264 60.82495045 -2.19962192 53.27967127 -2.21583293 45.73435448 C-2.22761697 39.95655131 -2.22891665 34.17878325 -2.22621536 28.40097046 C-2.226768 26.02489766 -2.23077803 23.6488229 -2.23841095 21.2727623 C-2.24828618 18.04163762 -2.24599618 14.81074994 -2.24050903 11.57962036 C-2.24633472 10.62827276 -2.2521604 9.67692517 -2.25816262 8.69674885 C-2.25418052 7.83585144 -2.25019842 6.97495404 -2.24609566 6.08796883 C-2.2468551 5.34143866 -2.24761454 4.59490849 -2.24839699 3.82575619 C-2 2 -2 2 0 0 Z " fill="#FDDA14" transform="translate(457,348)"/>
<path d="M0 0 C11.22 0 22.44 0 34 0 C35 1 35 1 35.12025452 3.77772522 C35.11803391 5.01904709 35.11581329 6.26036896 35.11352539 7.53930664 C35.11367142 8.22220261 35.11381744 8.90509857 35.1139679 9.60868835 C35.11326876 11.87587614 35.1054764 14.14298274 35.09765625 16.41015625 C35.09579207 17.97814387 35.09436817 19.54613207 35.09336853 21.11412048 C35.08954334 25.24876503 35.07971306 29.38337466 35.06866455 33.51800537 C35.05665582 38.47475717 35.05204819 43.43152061 35.04621124 48.38828278 C35.03650129 55.92554616 35.01734477 63.46273288 35 71 C46.22 71 57.44 71 69 71 C69 71.33 69 71.66 69 72 C64.03396287 72.16724111 59.06777322 72.32783783 54.10131836 72.48217773 C52.41050377 72.53567115 50.71974642 72.59100598 49.02905273 72.64819336 C46.60412953 72.72990041 44.17908006 72.80506395 41.75390625 72.87890625 C40.99348526 72.90594131 40.23306427 72.93297638 39.44960022 72.96083069 C37.63376666 73.01291299 35.81654157 73.01186585 34 73 C32.26139634 71.26139634 32.83907981 68.87319515 32.81054688 66.50561523 C32.79382935 65.33026718 32.77711182 64.15491913 32.7598877 62.94395447 C32.74631226 61.66178543 32.73273682 60.37961639 32.71875 59.05859375 C32.69061751 57.05460759 32.66248005 55.05062149 32.63405609 53.04663944 C32.58526614 49.51031059 32.54293925 45.97390389 32.5 42.4375 C32.44878887 38.24670273 32.39625586 34.05594225 32.33703613 29.86524963 C32.30055256 27.25311183 32.26807947 24.64091413 32.2401123 22.02867126 C32.22339478 20.83125809 32.20667725 19.63384491 32.18945312 18.40014648 C32.17692505 17.35503403 32.16439697 16.30992157 32.15148926 15.23313904 C31.97531965 11.47326288 31.46686688 7.73493504 31 4 C21.43 4 11.86 4 2 4 C2.33 6.64 2.66 9.28 3 12 C3.0830403 14.38227237 3.12209381 16.76642797 3.12025452 19.15014648 C3.12153615 20.15882813 3.12153615 20.15882813 3.12284368 21.18788719 C3.12447592 23.41565081 3.11901451 25.6433372 3.11352539 27.87109375 C3.113243 29.47816465 3.11340226 31.08523569 3.1139679 32.69230652 C3.11425386 37.03674696 3.10838958 41.38115957 3.10139394 45.72559357 C3.09512698 50.27262734 3.09455396 54.8196618 3.09336853 59.36669922 C3.09026505 67.96897738 3.08206495 76.57124277 3.07201904 85.17351532 C3.06082733 94.9703688 3.05533975 104.7672229 3.05032361 114.56408119 C3.0398815 134.70939458 3.02230114 154.85469648 3 175 C2.01 175.33 1.02 175.66 0 176 C0 117.92 0 59.84 0 0 Z " fill="#E89D00" transform="translate(278,419)"/>
<path d="M0 0 C150.48 0 300.96 0 456 0 C456 0.33 456 0.66 456 1 C455.18193925 1.00634791 455.18193925 1.00634791 454.34735203 1.01282406 C441.09477185 1.11599971 427.84224676 1.22468072 414.58976078 1.33933926 C408.18103358 1.39461881 401.77230185 1.44804671 395.36352539 1.49731445 C389.18436499 1.54488395 383.00526209 1.59722378 376.82616997 1.65294075 C374.46296041 1.67339802 372.09973506 1.69210538 369.73649788 1.70907402 C366.43893826 1.73304365 363.14148848 1.76310801 359.84399414 1.79467773 C358.36261963 1.80331093 358.36261963 1.80331093 356.85131836 1.81211853 C355.51140587 1.82680176 355.51140587 1.82680176 354.14442444 1.84178162 C353.36366578 1.84823417 352.58290712 1.85468672 351.77848911 1.8613348 C349.97524396 1.80808857 349.97524396 1.80808857 349 3 C346.85256451 3.09425595 344.70198974 3.11742648 342.55249023 3.11352539 C341.87934784 3.11367142 341.20620544 3.11381744 340.51266479 3.1139679 C338.27794216 3.11326878 336.0433019 3.10547652 333.80859375 3.09765625 C332.26302638 3.09579206 330.71745843 3.09436816 329.17189026 3.09336853 C325.09642923 3.0895434 321.02100363 3.07971317 316.94555664 3.06866455 C312.78988118 3.05845032 308.63420001 3.05387089 304.47851562 3.04882812 C296.31899413 3.03809089 288.15950147 3.02101454 280 3 C280 2.34 280 1.68 280 1 C187.6 1 95.2 1 0 1 C0 0.67 0 0.34 0 0 Z " fill="#DA8202" transform="translate(280,596)"/>
<path d="M0 0 C0.33 0 0.66 0 1 0 C1 81.51 1 163.02 1 247 C-3 246 -3 246 -5 244 C-3.515 243.01 -3.515 243.01 -2 242 C-1.70375611 238.84793659 -1.60484779 235.89219758 -1.63250732 232.73754883 C-1.62923848 231.76536565 -1.62596964 230.79318247 -1.62260175 229.79153919 C-1.61528196 226.51321421 -1.62951556 223.23532938 -1.64355469 219.95703125 C-1.64276437 217.61518274 -1.64066882 215.27333435 -1.63735962 212.93148804 C-1.63221036 206.55558035 -1.6457914 200.17983311 -1.66288662 193.80395126 C-1.67636366 187.81922891 -1.67667172 181.8345115 -1.67726317 175.84977734 C-1.67895247 163.99129392 -1.69478248 152.13287162 -1.71875 140.27441406 C-1.74200917 128.75813286 -1.75617456 117.24189043 -1.75976562 105.72558594 C-1.75998839 105.01633724 -1.76021116 104.30708855 -1.76044068 103.57634747 C-1.76088327 102.14762757 -1.76132529 100.71890767 -1.76176675 99.29018778 C-1.76198631 98.58546966 -1.76220588 97.88075155 -1.7624321 97.15467834 C-1.76264808 96.45178037 -1.76286407 95.7488824 -1.7630866 95.02468449 C-1.76700857 83.40121569 -1.77970911 71.77775453 -1.79277897 60.15429306 C-1.79688428 56.17851537 -1.79980671 52.20273806 -1.80257416 48.22695923 C-1.80745668 41.9890152 -1.81764235 35.75110131 -1.83201218 29.51317215 C-1.83654657 27.2177317 -1.83937652 24.92228719 -1.84041977 22.6268425 C-1.84215727 19.50534814 -1.85001845 16.38392999 -1.85955811 13.26245117 C-1.85869162 12.3435954 -1.85782514 11.42473963 -1.8569324 10.47803974 C-1.73886528 6.10180852 -1.73886528 6.10180852 -3 2 C-2.01 2 -1.02 2 0 2 C0 1.34 0 0.68 0 0 Z " fill="#EDAB01" transform="translate(454,349)"/>
<path d="M0 0 C11.55 0 23.1 0 35 0 C35 0.33 35 0.66 35 1 C23.78 1 12.56 1 1 1 C1 24.1 1 47.2 1 71 C12.55 71 24.1 71 36 71 C36 71.33 36 71.66 36 72 C24.45 72 12.9 72 1 72 C1 95.1 1 118.2 1 142 C-10.88 142 -22.76 142 -35 142 C-35 118.57 -35 95.14 -35 71 C-23.45 71 -11.9 71 0 71 C0 47.57 0 24.14 0 0 Z M-34 72 C-34 94.11 -34 116.22 -34 139 C-31.14992869 140.42503565 -28.71379745 140.12980035 -25.53125 140.1328125 C-24.23832031 140.13410156 -22.94539062 140.13539063 -21.61328125 140.13671875 C-20.60128662 140.13357666 -20.60128662 140.13357666 -19.56884766 140.13037109 C-17.50806311 140.12502093 -15.44749651 140.13032035 -13.38671875 140.13671875 C-11.44732422 140.13478516 -11.44732422 140.13478516 -9.46875 140.1328125 C-7.68114258 140.13112061 -7.68114258 140.13112061 -5.85742188 140.12939453 C-3.05409934 140.19633896 -3.05409934 140.19633896 -1 139 C-1 138.20486496 -1 137.40972992 -1 136.59049988 C-1 115.06033325 -1 93.53016663 -1 72 C-11.89 72 -22.78 72 -34 72 Z " fill="#0E0B05" transform="translate(702,277)"/>
<path d="M0 0 C11.55 0 23.1 0 35 0 C35.33 24.42 35.66 48.84 36 74 C35.34 74 34.68 74 34 74 C32.87259289 70.61777868 32.84082309 67.98361297 32.79467773 64.41723633 C32.78477814 63.75355545 32.77487854 63.08987457 32.76467896 62.40608215 C32.7331191 60.21476801 32.70832845 58.02343219 32.68359375 55.83203125 C32.66301945 54.31173645 32.64202285 52.79144731 32.62062073 51.27116394 C32.56544916 47.27141913 32.51601825 43.27162311 32.46777344 39.27178955 C32.4175225 35.18961026 32.36185519 31.10750526 32.30664062 27.02539062 C32.19911916 19.01698821 32.09816145 11.00852262 32 3 C22.76 3 13.52 3 4 3 C3.67 82.2 3.34 161.4 3 243 C2.67 243 2.34 243 2 243 C1.99576806 241.77194515 1.99153612 240.5438903 1.98717594 239.27862167 C1.88654318 210.13995955 1.78084208 181.00131936 1.66888306 151.86269872 C1.65511316 148.27776934 1.64138611 144.6928398 1.62768555 141.10791016 C1.62495724 140.39420247 1.62222894 139.68049478 1.61941796 138.94515958 C1.57531935 127.3824882 1.53469383 115.81980709 1.49534739 104.25711867 C1.4549099 92.39647428 1.41075038 80.53584798 1.36312145 68.67523026 C1.3364699 62.0117418 1.31167191 55.34825514 1.29092598 48.68474579 C1.27135889 42.41726729 1.2472148 36.14982336 1.21950912 29.88237572 C1.21013909 27.57810531 1.20246364 25.27382731 1.19658089 22.96954536 C1.18831896 19.83111961 1.17404188 16.69277771 1.15821838 13.55438232 C1.15724028 12.63609705 1.15626217 11.71781177 1.15525442 10.77169967 C1.14977998 9.93120393 1.14430554 9.09070819 1.1386652 8.22474289 C1.13600716 7.5002365 1.13334911 6.77573011 1.13061053 6.02926898 C1.03805992 3.64302697 1.03805992 3.64302697 0 0 Z " fill="#FDE511" transform="translate(242,349)"/>
<path d="M0 0 C23.1 0 46.2 0 70 0 C70 22.77 70 45.54 70 69 C69.34 69 68.68 69 68 69 C68 68.01 68 67.02 68 66 C67.34 66 66.68 66 66 66 C66 65.34 66 64.68 66 64 C65.34 64 64.68 64 64 64 C64 63.34 64 62.68 64 62 C65.32 61.67 66.64 61.34 68 61 C67.67 60.01 67.34 59.02 67 58 C66.91173035 56.17467414 66.88236797 54.34625311 66.88647461 52.51879883 C66.88659546 51.38220825 66.88671631 50.24561768 66.88684082 49.07458496 C66.89195679 47.88079224 66.89707275 46.68699951 66.90234375 45.45703125 C66.90335083 44.35919312 66.90435791 43.26135498 66.90539551 42.13024902 C66.91063248 38.02432208 66.92459372 33.91841 66.9375 29.8125 C66.958125 20.634375 66.97875 11.45625 67 2 C35.32 1.505 35.32 1.505 3 1 C3.33 3.31 3.66 5.62 4 8 C3.34 8 2.68 8 2 8 C2.0169693 8.65875122 2.0339386 9.31750244 2.05142212 9.99621582 C2.22645286 16.87448709 2.38615752 23.752995 2.53710938 30.63183594 C2.59537977 33.19638074 2.65751083 35.76084093 2.72363281 38.32519531 C2.81819172 42.01872343 2.89869993 45.71233673 2.9765625 49.40625 C3.00875885 50.5461438 3.0409552 51.6860376 3.0741272 52.86047363 C3.1883135 58.97693718 2.82366541 64.14933281 1 70 C0.34 69.67 -0.32 69.34 -1 69 C-0.67 46.23 -0.34 23.46 0 0 Z " fill="#FDFD8F" transform="translate(561,632)"/>
<path d="M0 0 C11.88 0 23.76 0 36 0 C36 23.1 36 46.2 36 70 C24.12 70 12.24 70 0 70 C0 46.9 0 23.8 0 0 Z M6 3 C6 4.32 6 5.64 6 7 C5.34 7 4.68 7 4 7 C3.67 6.01 3.34 5.02 3 4 C1.71489224 5.06094586 1.71489224 5.06094586 1.87974548 7.51197815 C1.88196609 8.62894577 1.88418671 9.74591339 1.88647461 10.89672852 C1.88655014 12.15796036 1.88662567 13.4191922 1.88670349 14.71864319 C1.8918109 16.10539794 1.89702691 17.49215229 1.90234375 18.87890625 C1.90420799 20.28995209 1.90563186 21.70099857 1.90663147 23.11204529 C1.91045621 26.83240535 1.9202861 30.5527266 1.93133545 34.27307129 C1.94334539 38.73339791 1.94795202 43.19373748 1.95378876 47.65407562 C1.9634979 54.43607744 1.98265472 61.21799403 2 68 C11.9 68 21.8 68 32 68 C32 67.34 32 66.68 32 66 C32.99 65.505 32.99 65.505 34 65 C34.06948567 57.09843395 34.12280364 49.19699537 34.15543652 41.29519939 C34.17109805 37.62613324 34.19234475 33.95727599 34.22631836 30.28833008 C34.25889514 26.74811053 34.27684934 23.20809201 34.28463173 19.66773415 C34.29287924 17.65852345 34.31630137 15.64939372 34.33988953 13.64030457 C34.34022942 11.80874565 34.34022942 11.80874565 34.34057617 9.94018555 C34.34723801 8.86318893 34.35389984 7.78619232 34.36076355 6.67655945 C34.21685751 3.98162455 34.21685751 3.98162455 32.62997437 2.15200806 C30.30541075 0.50908896 28.57192406 0.62771076 25.74609375 0.63671875 C24.21758789 0.63768555 24.21758789 0.63768555 22.65820312 0.63867188 C21.59537109 0.65478516 20.53253906 0.67089844 19.4375 0.6875 C18.37080078 0.68427734 17.30410156 0.68105469 16.20507812 0.67773438 C10.54472326 0.33282793 10.54472326 0.33282793 6 3 Z " fill="#FED317" transform="translate(242,632)"/>
<path d="M0 0 C0.33 0 0.66 0 1 0 C1 22.77 1 45.54 1 69 C46.87 69 92.74 69 140 69 C140 46.89 140 24.78 140 2 C128.45 1.67 116.9 1.34 105 1 C105 0.67 105 0.34 105 0 C117.21 0 129.42 0 142 0 C142 23.1 142 46.2 142 70 C95.14 70 48.28 70 0 70 C0 46.9 0 23.8 0 0 Z " fill="#ECE44F" transform="translate(631,632)"/>
<path d="M0 0 C11.55 0 23.1 0 35 0 C35 23.1 35 46.2 35 70 C23.45 70 11.9 70 0 70 C0 69.01 0 68.02 0 67 C10.56 67 21.12 67 32 67 C32 45.55 32 24.1 32 2 C21.44 2 10.88 2 0 2 C0 1.34 0 0.68 0 0 Z " fill="#0F0402" transform="translate(384,349)"/>
<path d="M0 0 C2.44943317 3.67414975 2.25920129 5.46829332 2.2784729 9.85258484 C2.2842653 10.55343557 2.2900577 11.2542863 2.29602563 11.97637492 C2.31306232 14.33024352 2.31590524 16.68391648 2.31884766 19.0378418 C2.32814331 20.72299686 2.33831144 22.40814729 2.34928894 24.09329224 C2.37664392 28.67353721 2.3917546 33.25375133 2.40471697 37.83405662 C2.4203235 42.61872134 2.44712158 47.40332284 2.4727478 52.1879425 C2.51957955 61.2507649 2.55630236 70.31359913 2.58942068 79.37648088 C2.62761104 89.69320091 2.67702925 100.00985752 2.72740483 110.32652414 C2.83079006 131.55096929 2.920029 152.77545457 3 174 C2.01 174 1.02 174 0 174 C0 116.58 0 59.16 0 0 Z " fill="#FDFC9D" transform="translate(562,421)"/>
<path d="M0 0 C0.33 0 0.66 0 1 0 C1.02312566 8.97920777 1.04091623 17.95840537 1.05181217 26.93763638 C1.05704051 31.10662828 1.06413726 35.27559987 1.07543945 39.44458008 C1.08627008 43.46457686 1.09227721 47.48455405 1.09487724 51.50456429 C1.09673118 53.04162975 1.10035119 54.57869409 1.10573006 56.11575127 C1.11294284 58.26135487 1.11399084 60.40687655 1.11352539 62.55249023 C1.115746 63.77604721 1.11796661 64.99960419 1.12025452 66.26023865 C1 69 1 69 0 70 C-1.36608326 70.09535213 -2.73705455 70.1218867 -4.10646057 70.12025452 C-4.99132141 70.12162918 -5.87618225 70.12300385 -6.78785706 70.12442017 C-8.25520546 70.11902725 -8.25520546 70.11902725 -9.75219727 70.11352539 C-10.7764682 70.11367142 -11.80073914 70.11381744 -12.85604858 70.1139679 C-16.25952229 70.11326828 -19.66294204 70.10547363 -23.06640625 70.09765625 C-25.41910268 70.09579224 -27.7717995 70.09436826 -30.12449646 70.09336853 C-36.33056705 70.08954199 -42.5366144 70.07971055 -48.74267578 70.06866455 C-55.06998378 70.05845334 -61.39729552 70.05387154 -67.72460938 70.04882812 C-80.14974982 70.0380884 -92.57487298 70.02101036 -105 70 C-105 69.34 -105 68.68 -105 68 C-70.68 68 -36.36 68 -1 68 C-1.03961349 45.9952271 -1.03961349 45.9952271 -1.09008789 23.99047852 C-1.09300673 21.24495482 -1.09555536 18.49943069 -1.09765625 15.75390625 C-1.10026962 15.0358934 -1.102883 14.31788055 -1.10557556 13.57810974 C-1.11285571 11.47335481 -1.11390733 9.36868158 -1.11352539 7.26391602 C-1.115746 6.07588882 -1.11796661 4.88786163 -1.12025452 3.66383362 C-1 1 -1 1 0 0 Z " fill="#EDE635" transform="translate(560,632)"/>
<path d="M0 0 C23.76 0 47.52 0 72 0 C72 11.88 72 23.76 72 36 C60.45 36 48.9 36 37 36 C37 47.55 37 59.1 37 71 C25.12 71 13.24 71 1 71 C0.67 47.57 0.34 24.14 0 0 Z M2 1 C2 23.77 2 46.54 2 70 C13.22 70 24.44 70 36 70 C36.33 58.12 36.66 46.24 37 34 C48.22 34 59.44 34 71 34 C71 23.11 71 12.22 71 1 C48.23 1 25.46 1 2 1 Z " fill="#462917" transform="translate(312,419)"/>
<path d="M0 0 C4.82380802 -0.0246519 9.64757967 -0.04283693 14.47143555 -0.05493164 C16.11369464 -0.05997174 17.75594923 -0.06680378 19.39819336 -0.07543945 C21.75375479 -0.08751926 24.10925709 -0.09323139 26.46484375 -0.09765625 C27.20339096 -0.10281754 27.94193817 -0.10797882 28.7028656 -0.11329651 C30.46898088 -0.1134925 32.23497146 -0.06194719 34 0 C35 1 35 1 35.12025452 3.77772522 C35.11803391 5.01904709 35.11581329 6.26036896 35.11352539 7.53930664 C35.11367142 8.22220261 35.11381744 8.90509857 35.1139679 9.60868835 C35.11326876 11.87587614 35.1054764 14.14298274 35.09765625 16.41015625 C35.09579207 17.97814387 35.09436817 19.54613207 35.09336853 21.11412048 C35.08954334 25.24876503 35.07971306 29.38337466 35.06866455 33.51800537 C35.05665582 38.47475717 35.05204819 43.43152061 35.04621124 48.38828278 C35.03650129 55.92554616 35.01734477 63.46273288 35 71 C46.22 71 57.44 71 69 71 C69 71.33 69 71.66 69 72 C64.03396287 72.16724111 59.06777322 72.32783783 54.10131836 72.48217773 C52.41050377 72.53567115 50.71974642 72.59100598 49.02905273 72.64819336 C46.60412953 72.72990041 44.17908006 72.80506395 41.75390625 72.87890625 C40.99348526 72.90594131 40.23306427 72.93297638 39.44960022 72.96083069 C37.63376666 73.01291299 35.81654157 73.01186585 34 73 C32.26139634 71.26139634 32.83907981 68.87319515 32.81054688 66.50561523 C32.79382935 65.33026718 32.77711182 64.15491913 32.7598877 62.94395447 C32.74631226 61.66178543 32.73273682 60.37961639 32.71875 59.05859375 C32.69061751 57.05460759 32.66248005 55.05062149 32.63405609 53.04663944 C32.58526614 49.51031059 32.54293925 45.97390389 32.5 42.4375 C32.44878887 38.24670273 32.39625586 34.05594225 32.33703613 29.86524963 C32.30055256 27.25311183 32.26807947 24.64091413 32.2401123 22.02867126 C32.22339478 20.83125809 32.20667725 19.63384491 32.18945312 18.40014648 C32.17692505 17.35503403 32.16439697 16.30992157 32.15148926 15.23313904 C31.97531965 11.47326288 31.46686688 7.73493504 31 4 C21.1 4 11.2 4 1 4 C0.67 2.68 0.34 1.36 0 0 Z " fill="#E39729" transform="translate(278,419)"/>
<path d="M0 0 C11.55 0 23.1 0 35 0 C34.67 0.66 34.34 1.32 34 2 C33.13197754 2.02505615 32.26395508 2.0501123 31.36962891 2.07592773 C28.15286837 2.17099484 24.93627151 2.27023203 21.71972656 2.37231445 C20.3268741 2.41565846 18.93396869 2.45733396 17.54101562 2.49731445 C15.54023349 2.55502932 13.53964141 2.61921869 11.5390625 2.68359375 C10.33459473 2.72025146 9.13012695 2.75690918 7.88916016 2.79467773 C5.06003633 2.81052987 5.06003633 2.81052987 3 4 C2.67 25.45 2.34 46.9 2 69 C2.99 69 3.98 69 5 69 C5 69.66 5 70.32 5 71 C1.11538953 72.29487016 -2.55883956 72.1232604 -6.60546875 72.09765625 C-7.44467361 72.0962413 -8.28387848 72.09482635 -9.14851379 72.09336853 C-11.82821216 72.08777215 -14.5078269 72.07522035 -17.1875 72.0625 C-19.00455608 72.05748453 -20.82161348 72.05292171 -22.63867188 72.04882812 C-27.09250604 72.03865491 -31.54615943 72.0190788 -36 72 C-36 60.12 -36 48.24 -36 36 C-35.67 36 -35.34 36 -35 36 C-35 47.55 -35 59.1 -35 71 C-23.45 71 -11.9 71 0 71 C0 47.57 0 24.14 0 0 Z " fill="#C8BF46" transform="translate(667,419)"/>
<path d="M0 0 C0.33 0 0.66 0 1 0 C1 11.55 1 23.1 1 35 C12.55 35 24.1 35 36 35 C36 58.43 36 81.86 36 106 C47.55 106 59.1 106 71 106 C71 106.33 71 106.66 71 107 C59.45 107 47.9 107 36 107 C36 130.1 36 153.2 36 177 C35.67 177 35.34 177 35 177 C35 153.9 35 130.8 35 107 C23.45 107 11.9 107 0 107 C0 106.67 0 106.34 0 106 C11.55 106 23.1 106 35 106 C35 82.9 35 59.8 35 36 C23.45 36 11.9 36 0 36 C0 24.12 0 12.24 0 0 Z " fill="#7C7952" transform="translate(242,242)"/>
<path d="M0 0 C0.33 0 0.66 0 1 0 C1 23.1 1 46.2 1 70 C12.22 70 23.44 70 35 70 C35 50.2 35 30.4 35 10 C35.33 10 35.66 10 36 10 C36 30.13 36 50.26 36 71 C24.45 71 12.9 71 1 71 C1 94.1 1 117.2 1 141 C0.67 141 0.34 141 0 141 C0 117.9 0 94.8 0 71 C-11.55 71 -23.1 71 -35 71 C-35 70.67 -35 70.34 -35 70 C-23.45 70 -11.9 70 0 70 C0 46.9 0 23.8 0 0 Z " fill="#665329" transform="translate(419,278)"/>
<path d="M0 0 C58.08 0 116.16 0 176 0 C176 0.33 176 0.66 176 1 C175.18193925 1.00634791 175.18193925 1.00634791 174.34735203 1.01282406 C161.09477185 1.11599971 147.84224676 1.22468072 134.58976078 1.33933926 C128.18103358 1.39461881 121.77230185 1.44804671 115.36352539 1.49731445 C109.18436499 1.54488395 103.00526209 1.59722378 96.82616997 1.65294075 C94.46296041 1.67339802 92.09973506 1.69210538 89.73649788 1.70907402 C86.43893826 1.73304365 83.14148848 1.76310801 79.84399414 1.79467773 C78.36261963 1.80331093 78.36261963 1.80331093 76.85131836 1.81211853 C75.51140587 1.82680176 75.51140587 1.82680176 74.14442444 1.84178162 C72.97328645 1.85146044 72.97328645 1.85146044 71.77848911 1.8613348 C69.97524396 1.80808857 69.97524396 1.80808857 69 3 C66.85256451 3.09425595 64.70198974 3.11742648 62.55249023 3.11352539 C61.54277664 3.11374443 61.54277664 3.11374443 60.51266479 3.1139679 C58.27794216 3.11326878 56.0433019 3.10547652 53.80859375 3.09765625 C52.26302638 3.09579206 50.71745843 3.09436816 49.17189026 3.09336853 C45.09642923 3.0895434 41.02100363 3.07971317 36.94555664 3.06866455 C32.78988118 3.05845032 28.63420001 3.05387089 24.47851562 3.04882812 C16.31899413 3.03809089 8.15950147 3.02101454 0 3 C0 2.01 0 1.02 0 0 Z " fill="#CA8511" transform="translate(560,596)"/>
<path d="M0 0 C11.22 0 22.44 0 34 0 C34 0.66 34 1.32 34 2 C32.59923218 2.03758423 32.59923218 2.03758423 31.17016602 2.07592773 C27.71674811 2.17086928 24.2635104 2.27011258 20.81030273 2.37231445 C19.31360731 2.41571813 17.81686061 2.45738913 16.32006836 2.49731445 C14.17285688 2.55488616 12.02590479 2.61861716 9.87890625 2.68359375 C8.5854126 2.72025146 7.29191895 2.75690918 5.95922852 2.79467773 C3.11444992 2.6667278 3.11444992 2.6667278 2 4 C1.88666039 6.0751053 1.84313937 8.1540468 1.82641602 10.23217773 C1.819729 10.8826004 1.81304199 11.53302307 1.80615234 12.20315552 C1.79207328 13.61965985 1.78018838 15.03618725 1.77020454 16.45272636 C1.75384213 18.69237004 1.73060713 20.93184255 1.70530701 23.17140198 C1.63439601 29.54036993 1.57435512 35.90940786 1.52319336 42.27856445 C1.4914504 46.17015747 1.45018668 50.06155469 1.40299797 53.95298958 C1.3869488 55.43895008 1.37464075 56.92495574 1.36609077 58.41097832 C1.35397408 60.48699768 1.32984091 62.56255445 1.30297852 64.63842773 C1.29267105 65.82121811 1.28236359 67.00400848 1.27174377 68.22264099 C1 71 1 71 -1 73 C-3.58640993 73.10448236 -6.05410744 73.08977014 -8.6328125 72.9765625 C-9.38464813 72.95153656 -10.13648376 72.92651062 -10.91110229 72.90072632 C-13.31618839 72.81844911 -15.72046257 72.72189139 -18.125 72.625 C-19.75387291 72.5667682 -21.3827793 72.50946475 -23.01171875 72.453125 C-27.00845381 72.31460411 -31.00377257 72.15679789 -35 72 C-35 82.89 -35 93.78 -35 105 C-35.33 105 -35.66 105 -36 105 C-36 93.45 -36 81.9 -36 70 C-24.12 70 -12.24 70 0 70 C0 46.9 0 23.8 0 0 Z " fill="#D89231" transform="translate(420,349)"/>
<path d="M0 0 C11.55 0 23.1 0 35 0 C35 0.33 35 0.66 35 1 C23.78 1 12.56 1 1 1 C1 24.1 1 47.2 1 71 C12.55 71 24.1 71 36 71 C36 71.33 36 71.66 36 72 C24.45 72 12.9 72 1 72 C1 95.1 1 118.2 1 142 C0.67 142 0.34 142 0 142 C0 118.9 0 95.8 0 72 C-11.55 72 -23.1 72 -35 72 C-35 71.67 -35 71.34 -35 71 C-23.45 71 -11.9 71 0 71 C0 47.57 0 24.14 0 0 Z " fill="#747143" transform="translate(702,277)"/>
<path d="M0 0 C11.55 0 23.1 0 35 0 C35 0.33 35 0.66 35 1 C24.11 1 13.22 1 2 1 C2 23.11 2 45.22 2 68 C12.23 68 22.46 68 33 68 C33.99 68.99 33.99 68.99 35 70 C23.45 70 11.9 70 0 70 C0 46.9 0 23.8 0 0 Z " fill="#E09632" transform="translate(207,632)"/>
<path d="M0 0 C0.66 0 1.32 0 2 0 C2 22.44 2 44.88 2 68 C-13.75 66.875 -13.75 66.875 -19 65 C-14.46239141 61.27267866 -11.04921987 60.86846167 -5.25 60.9375 C-4.26515625 60.94652344 -3.2803125 60.95554687 -2.265625 60.96484375 C-1.14414063 60.98224609 -1.14414063 60.98224609 0 61 C-0.16455185 60.45728455 -0.3291037 59.91456909 -0.49864197 59.35540771 C-1.08541086 56.59873505 -1.07785802 54.13242522 -1.02172852 51.31347656 C-0.99158409 49.60215546 -0.99158409 49.60215546 -0.96083069 47.85626221 C-0.93379562 46.63010193 -0.90676056 45.40394165 -0.87890625 44.140625 C-0.85529526 42.88111023 -0.83168427 41.62159546 -0.80735779 40.32391357 C-0.74377606 36.98327726 -0.67556319 33.64280089 -0.60510254 30.30230713 C-0.53427725 26.89041532 -0.46954538 23.47840846 -0.40429688 20.06640625 C-0.27514476 13.37748398 -0.13988533 6.68870595 0 0 Z " fill="#F19D01" transform="translate(240,633)"/>
<path d="M0 0 C0.33 0 0.66 0 1 0 C1 11.55 1 23.1 1 35 C24.1 35 47.2 35 71 35 C71 23.45 71 11.9 71 0 C71.33 0 71.66 0 72 0 C72 11.55 72 23.1 72 35 C83.55 35 95.1 35 107 35 C107 35.33 107 35.66 107 36 C82.57567342 37.19865658 58.18969037 36.95120932 33.75 36.5625 C32.94376945 36.54968616 32.13753891 36.53687233 31.30687714 36.5236702 C21.20435028 36.36191578 11.10209315 36.18693633 1 36 C1 39.3 1 42.6 1 46 C0.67 46 0.34 46 0 46 C0 42.7 0 39.4 0 36 C-11.55 36 -23.1 36 -35 36 C-35 35.67 -35 35.34 -35 35 C-23.45 35 -11.9 35 0 35 C0 23.45 0 11.9 0 0 Z " fill="#7C785E" transform="translate(454,242)"/>
<path d="M0 0 C11.55 0 23.1 0 35 0 C35.33 24.42 35.66 48.84 36 74 C35.34 74 34.68 74 34 74 C32.87259289 70.61777868 32.84082309 67.98361297 32.79467773 64.41723633 C32.78477814 63.75355545 32.77487854 63.08987457 32.76467896 62.40608215 C32.7331191 60.21476801 32.70832845 58.02343219 32.68359375 55.83203125 C32.66301945 54.31173645 32.64202285 52.79144731 32.62062073 51.27116394 C32.56544916 47.27141913 32.51601825 43.27162311 32.46777344 39.27178955 C32.4175225 35.18961026 32.36185519 31.10750526 32.30664062 27.02539062 C32.19911918 19.0169899 32.09766089 11.00852701 32 3 C28.06731133 2.97526132 24.13465287 2.95712165 20.2019043 2.94506836 C18.20685232 2.93757271 16.21182214 2.92486655 14.21679688 2.91210938 C12.96318359 2.90888672 11.70957031 2.90566406 10.41796875 2.90234375 C9.26063232 2.89710693 8.1032959 2.89187012 6.91088867 2.88647461 C3.93395589 2.86700539 3.93395589 2.86700539 1 4 C0.67 2.68 0.34 1.36 0 0 Z " fill="#EFE436" transform="translate(242,349)"/>
<path d="M0 0 C0.99 0 1.98 0 3 0 C3 23.1 3 46.2 3 70 C2.01 70 1.02 70 0 70 C0 46.9 0 23.8 0 0 Z " fill="#1E1403" transform="translate(773,632)"/>
<path d="M0 0 C11.55 0 23.1 0 35 0 C35 0.66 35 1.32 35 2 C34.19175781 2.04898437 33.38351562 2.09796875 32.55078125 2.1484375 C31.48214844 2.22320312 30.41351563 2.29796875 29.3125 2.375 C28.25675781 2.44460938 27.20101563 2.51421875 26.11328125 2.5859375 C22.5963172 2.92392391 22.5963172 2.92392391 18 5 C13.05 5 8.1 5 3 5 C3 14.9 3 24.8 3 35 C2.01 35 1.02 35 0 35 C0 23.45 0 11.9 0 0 Z " fill="#EF9314" transform="translate(349,455)"/>
<path d="M0 0 C11.55 0 23.1 0 35 0 C35 0.99 35 1.98 35 3 C20.15 2.505 20.15 2.505 5 2 C4.34 3.32 3.68 4.64 3 6 C2.67 6.33 2.34 6.66 2 7 C1.87465012 10.01276111 1.81387984 13.00369583 1.79467773 16.01782227 C1.78477814 16.96406464 1.77487854 17.91030701 1.76467896 18.88522339 C1.73296197 22.02892511 1.70826639 25.17264198 1.68359375 28.31640625 C1.66303302 30.48974512 1.64203679 32.66307991 1.62062073 34.83641052 C1.56530905 40.56896674 1.51594003 46.30155958 1.46777344 52.03417969 C1.41762465 57.87893958 1.3619041 63.723646 1.30664062 69.56835938 C1.19894787 81.04552728 1.09752775 92.52274153 1 104 C0.67 104 0.34 104 0 104 C0 69.68 0 35.36 0 0 Z " fill="#EDE525" transform="translate(632,491)"/>
<path d="M0 0 C0.99 0 1.98 0 3 0 C3 33.99 3 67.98 3 103 C2.67 103 2.34 103 2 103 C1.24296673 89.62587535 0.81368046 76.28467706 0.68359375 62.890625 C0.66293918 61.05832544 0.64194111 59.22602973 0.62062073 57.39373779 C0.56627518 52.64621155 0.51649245 47.89864888 0.46777344 43.15106201 C0.4169055 38.27645755 0.36156567 33.40190388 0.30664062 28.52734375 C0.20013514 19.01827287 0.09846647 9.50915729 0 0 Z " fill="#FDFE98" transform="translate(627,492)"/>
<path d="M0 0 C0 11.55 0 23.1 0 35 C-0.66 34.67 -1.32 34.34 -2 34 C-2 23.44 -2 12.88 -2 2 C-5.13999512 2.0407666 -8.27999023 2.0815332 -11.51513672 2.12353516 C-21.86869673 2.25648842 -32.22236542 2.37838211 -42.57612419 2.49477577 C-48.85600555 2.56571439 -55.13579564 2.64042316 -61.41552734 2.72363281 C-67.47137814 2.80373913 -73.52726968 2.87409276 -79.5833168 2.93757248 C-81.89830859 2.96357419 -84.21326307 2.99314046 -86.52816391 3.02626419 C-89.76077572 3.07192124 -92.9932859 3.10510885 -96.22607422 3.13525391 C-97.6740036 3.16006584 -97.6740036 3.16006584 -99.15118408 3.18537903 C-100.02900543 3.19104385 -100.90682678 3.19670868 -101.81124878 3.20254517 C-102.57633696 3.2117631 -103.34142513 3.22098103 -104.1296978 3.23047829 C-106 3 -106 3 -108 1 C-94.21385873 0.86950167 -80.42771644 0.73911207 -66.64157295 0.60884857 C-60.24070311 0.54836438 -53.8398336 0.48784495 -47.43896484 0.42724609 C-41.26632641 0.36880924 -35.09368712 0.3104635 -28.92104721 0.25218201 C-26.56144047 0.2298866 -24.20183405 0.20755788 -21.84222794 0.18519592 C-18.54732595 0.15397576 -15.25242289 0.12287209 -11.95751953 0.09179688 C-10.9735318 0.08244614 -9.98954407 0.0730954 -8.97573853 0.0634613 C-8.08108887 0.05504715 -7.18643921 0.046633 -6.26467896 0.03796387 C-5.48484209 0.03058952 -4.70500523 0.02321518 -3.90153694 0.01561737 C-2.60105807 0.0049365 -1.30052273 0 0 0 Z " fill="#BA6E0D" transform="translate(738,596)"/>
<path d="M0 0 C1.98 0 3.96 0 6 0 C5.34 1.98 4.68 3.96 4 6 C3.34 6 2.68 6 2 6 C1.67 5.34 1.34 4.68 1 4 C0.67 24.79 0.34 45.58 0 67 C11.22 67 22.44 67 34 67 C34 67.66 34 68.32 34 69 C22.12 69 10.24 69 -2 69 C-1.79054288 52.64897539 -1.79054288 52.64897539 -1.69335938 45.68554688 C-1.6270433 40.93191623 -1.56177597 36.17828722 -1.50268555 31.42456055 C-1.45498692 27.59252318 -1.40264211 23.76057501 -1.34705925 19.92864418 C-1.32666062 18.46582571 -1.30794342 17.0029828 -1.29092598 15.54012108 C-1.26682673 13.49304745 -1.23677992 11.44614184 -1.20532227 9.39916992 C-1.18977798 8.23334885 -1.1742337 7.06752777 -1.15821838 5.86637878 C-1 3 -1 3 0 0 Z " fill="#F5DF22" transform="translate(244,633)"/>
<path d="M0 0 C4 4 4 4 4.171875 6.140625 C3.78125 8.09375 3.390625 10.046875 3 12 C3.66 11.67 4.32 11.34 5 11 C5.65213292 8.97536745 5.65213292 8.97536745 6 7 C6.66 7 7.32 7 8 7 C8.042721 8.66611905 8.04063832 10.33382885 8 12 C7.67 12.33 7.34 12.66 7 13 C6.76321284 15.69235776 6.57801975 18.36498156 6.4375 21.0625 C6.39431641 21.82111328 6.35113281 22.57972656 6.30664062 23.36132812 C6.20026367 25.24065438 6.09960066 27.12030244 6 29 C4.68 29 3.36 29 2 29 C2 30.98 2 32.96 2 35 C1.34 35 0.68 35 0 35 C0 23.45 0 11.9 0 0 Z " fill="#BD6915" transform="translate(242,596)"/>
<path d="M0 0 C2.3639196 3.54587941 2.24355585 5.01503682 2.22705078 9.21557617 C2.22689972 10.4966777 2.22674866 11.77777924 2.22659302 13.09770203 C2.21637973 14.49612584 2.20594774 15.89454808 2.1953125 17.29296875 C2.19158178 18.72357485 2.18873509 20.15418352 2.18673706 21.58479309 C2.17910522 25.34792144 2.15946069 29.11089511 2.1373291 32.8739624 C2.11686094 36.71478178 2.10773327 40.55562617 2.09765625 44.39648438 C2.07621429 51.93106006 2.04208387 59.46550834 2 67 C2.66 67 3.32 67 4 67 C4 67.66 4 68.32 4 69 C4.66 69 5.32 69 6 69 C6 69.66 6 70.32 6 71 C4.02 71 2.04 71 0 71 C0 47.57 0 24.14 0 0 Z " fill="#F8F8F7" transform="translate(561,277)"/>
<path d="M0 0 C0 23.1 0 46.2 0 70 C-2.7993938 65.80090929 -3.12338482 63.92625982 -3.11352539 58.89794922 C-3.11344986 57.61677216 -3.11337433 56.33559509 -3.11329651 55.01559448 C-3.10818948 53.61195843 -3.10297348 52.20832277 -3.09765625 50.8046875 C-3.09579146 49.37265065 -3.09436784 47.94061316 -3.09336853 46.50857544 C-3.08954819 42.73726646 -3.07972202 38.96599593 -3.06866455 35.19470215 C-3.05844005 31.34725464 -3.05386868 27.49980093 -3.04882812 23.65234375 C-3.03809933 16.10154497 -3.02102869 8.55077787 -3 1 C-1 0 -1 0 0 0 Z " fill="#2C0E00" transform="translate(207,632)"/>
<path d="M0 0 C11.55 0 23.1 0 35 0 C35 11.55 35 23.1 35 35 C33.35 35 31.7 35 30 35 C30 34.34 30 33.68 30 33 C30.66 33 31.32 33 32 33 C32 32.34 32 31.68 32 31 C31.01 30.67 30.02 30.34 29 30 C29.66 29.34 30.32 28.68 31 28 C31.261743 25.41076588 31.261743 25.41076588 31.16015625 22.40625 C31.14919922 21.29378906 31.13824219 20.18132813 31.12695312 19.03515625 C31.10568359 17.86855469 31.08441406 16.70195313 31.0625 15.5 C31.02816045 13.19797799 30.99799845 10.89588864 30.97265625 8.59375 C30.95468994 7.56958984 30.93672363 6.54542969 30.91821289 5.49023438 C31 3 31 3 32 1 C21.44 1 10.88 1 0 1 C0 0.67 0 0.34 0 0 Z " fill="#DBDBDA" transform="translate(172,596)"/>
<path d="M0 0 C1.98 0.99 1.98 0.99 4 2 C3.67 2.33 3.34 2.66 3 3 C2.8761366 5.0854182 2.82200933 7.17500141 2.79467773 9.26391602 C2.78477814 9.91755127 2.77487854 10.57118652 2.76467896 11.24462891 C2.73298366 13.41435064 2.70827508 15.5840943 2.68359375 17.75390625 C2.66303113 19.25463952 2.64203485 20.7553669 2.62062073 22.25608826 C2.56532845 26.21311693 2.51595089 30.17019849 2.46777344 34.12731934 C2.4176105 38.1624016 2.36189732 42.19740672 2.30664062 46.23242188 C2.1989716 54.15488277 2.09754621 62.07740804 2 70 C1.34 70 0.68 70 0 70 C0 46.9 0 23.8 0 0 Z " fill="#0B0900" transform="translate(561,349)"/>
<path d="M0 0 C11.55 0 23.1 0 35 0 C35 11.88 35 23.76 35 36 C23.45 36 11.9 36 0 36 C0 35.67 0 35.34 0 35 C10.89 34.67 21.78 34.34 33 34 C33 23.77 33 13.54 33 3 C22.44 2.67 11.88 2.34 1 2 C0.67 1.34 0.34 0.68 0 0 Z " fill="#341704" transform="translate(207,596)"/>
<path d="M0 0 C11.55 0 23.1 0 35 0 C35 22.11 35 44.22 35 67 C34.67 67 34.34 67 34 67 C34 45.55 34 24.1 34 2 C16.40348963 0.63871185 16.40348963 0.63871185 0 4 C0 2.68 0 1.36 0 0 Z " fill="#0C0C0C" transform="translate(278,349)"/>
<path d="M0 0 C0.99 0.33 1.98 0.66 3 1 C2.74766602 2.34457275 2.74766602 2.34457275 2.49023438 3.71630859 C1.69778775 9.30662433 2.00874306 14.9108063 2.15625 20.5390625 C2.18223267 21.73808197 2.20821533 22.93710144 2.23498535 24.17245483 C2.31788813 27.9901154 2.40807696 31.80754664 2.5 35.625 C2.6208755 40.65873677 2.7344892 45.6925618 2.84375 50.7265625 C2.88900818 52.45950058 2.88900818 52.45950058 2.93518066 54.22744751 C2.95850464 55.30561737 2.98182861 56.38378723 3.00585938 57.49462891 C3.02886108 58.43948151 3.05186279 59.38433411 3.07556152 60.3578186 C2.99954879 63.0157777 2.59933584 65.41387242 2 68 C1.34 68 0.68 68 0 68 C0 45.56 0 23.12 0 0 Z " fill="#E89D00" transform="translate(278,632)"/>
<path d="M0 0 C2.46591374 2.46591374 2.26509264 3.2014207 2.31884766 6.59814453 C2.33871735 7.55318878 2.35858704 8.50823303 2.37905884 9.49221802 C2.39061005 10.5286142 2.40216125 11.56501038 2.4140625 12.6328125 C2.43342865 13.69861542 2.4527948 14.76441833 2.4727478 15.86251831 C2.53265342 19.28326315 2.57890065 22.704044 2.625 26.125 C2.66318313 28.40886904 2.70223506 30.69272373 2.7421875 32.9765625 C2.88860902 41.65134543 3.02449808 50.32381299 3 59 C4.98 59.66 6.96 60.32 9 61 C9 61.33 9 61.66 9 62 C6.03 62 3.06 62 0 62 C0 41.54 0 21.08 0 0 Z " fill="#FDDA0F" transform="translate(455,638)"/>
<path d="M0 0 C0.99 0 1.98 0 3 0 C3 22.77 3 45.54 3 69 C2.67 69 2.34 69 2 69 C1.10798039 60.7406733 0.79809901 52.54162043 0.68359375 44.23828125 C0.66281265 42.96647507 0.64203156 41.69466888 0.62062073 40.38432312 C0.56673769 37.04227713 0.51636571 33.70021757 0.46777344 30.35809326 C0.4170701 26.93204043 0.36164193 23.50606417 0.30664062 20.08007812 C0.20012742 13.38678019 0.0982513 6.69342405 0 0 Z " fill="#EDAC01" transform="translate(452,632)"/>
<path d="M0 0 C34.65 0 69.3 0 105 0 C105 0.33 105 0.66 105 1 C103.81729019 1.00586624 102.63458038 1.01173248 101.41603088 1.01777649 C90.24914796 1.07508501 79.08245825 1.14788921 67.91577244 1.23571491 C62.17538937 1.28036891 56.43507647 1.31963613 50.69458008 1.34643555 C45.15069641 1.37251789 39.60708345 1.41295551 34.06336784 1.46318626 C31.95240595 1.47982159 29.84139727 1.49135657 27.7303791 1.49761391 C24.7647095 1.50729119 21.7997273 1.53539414 18.83422852 1.56762695 C17.53625839 1.56547432 17.53625839 1.56547432 16.21206665 1.5632782 C10.33935427 1.65306014 5.45757731 2.84439718 0 5 C0 3.35 0 1.7 0 0 Z " fill="#FED919" transform="translate(455,632)"/>
<path d="M0 0 C35.64 0 71.28 0 108 0 C108 0.33 108 0.66 108 1 C106.80396652 1.01030746 105.60793304 1.02061493 104.37565613 1.03123474 C93.11868779 1.12887909 81.86177583 1.23160465 70.60489941 1.33933926 C64.81726691 1.39456589 59.02962936 1.44798556 53.24194336 1.49731445 C47.65928494 1.54496172 42.07668871 1.59730478 36.49410439 1.65294075 C34.36141821 1.67336264 32.22871498 1.69207599 30.09599876 1.70907402 C27.11496171 1.73312159 24.13404244 1.76317585 21.15307617 1.79467773 C20.2661911 1.8004332 19.37930603 1.80618866 18.46554565 1.81211853 C17.65366287 1.82190735 16.84178009 1.83169617 16.0052948 1.84178162 C14.94753735 1.85146044 14.94753735 1.85146044 13.86841106 1.8613348 C11.77063342 1.94026303 11.77063342 1.94026303 9 3 C6.73828125 2.87890625 6.73828125 2.87890625 4.3125 2.5625 C3.10013672 2.40974609 3.10013672 2.40974609 1.86328125 2.25390625 C1.24839844 2.17011719 0.63351562 2.08632813 0 2 C0 1.34 0 0.68 0 0 Z " fill="#C67300" transform="translate(452,597)"/>
<path d="M0 0 C7.610625 -0.061875 7.610625 -0.061875 15.375 -0.125 C16.97520996 -0.14320801 18.57541992 -0.16141602 20.22412109 -0.18017578 C22.10478271 -0.18766846 22.10478271 -0.18766846 24.0234375 -0.1953125 C25.31169434 -0.20578613 26.59995117 -0.21625977 27.92724609 -0.22705078 C31 0 31 0 33 2 C30.25938791 2 27.52155786 1.9672455 24.78125 1.9296875 C22.68750347 1.9110646 20.59375325 1.89285173 18.5 1.875 C17.44167969 1.85824219 16.38335937 1.84148437 15.29296875 1.82421875 C14.27847656 1.81777344 13.26398438 1.81132812 12.21875 1.8046875 C11.28998047 1.79421387 10.36121094 1.78374023 9.40429688 1.77294922 C6.73663593 1.833231 6.73663593 1.833231 4 4 C2.06150761 9.54321701 3.02719709 16.17049276 3.21484375 21.95898438 C3.22902344 22.83232422 3.24320312 23.70566406 3.2578125 24.60546875 C3.2798877 25.40106201 3.30196289 26.19665527 3.32470703 27.01635742 C3.21755371 27.67095947 3.11040039 28.32556152 3 29 C2.01 29.66 1.02 30.32 0 31 C0 20.77 0 10.54 0 0 Z " fill="#ED9618" transform="translate(385,421)"/>
<path d="M0 0 C11.55 0 23.1 0 35 0 C35 0.33 35 0.66 35 1 C23.78 1 12.56 1 1 1 C1.144375 5.33125 1.28875 9.6625 1.4375 14.125 C1.48060303 15.47996582 1.52370605 16.83493164 1.56811523 18.23095703 C1.60622314 19.31231934 1.64433105 20.39368164 1.68359375 21.5078125 C1.72025146 22.60754395 1.75690918 23.70727539 1.79467773 24.84033203 C1.97898296 28.49111825 1.97898296 28.49111825 3 34 C18.84 34.495 18.84 34.495 35 35 C35 35.33 35 35.66 35 36 C23.45 36 11.9 36 0 36 C0 24.12 0 12.24 0 0 Z " fill="#3D2D05" transform="translate(738,596)"/>
<path d="M0 0 C4.82380802 -0.0246519 9.64757967 -0.04283693 14.47143555 -0.05493164 C16.11369464 -0.05997174 17.75594923 -0.06680378 19.39819336 -0.07543945 C21.75375479 -0.08751926 24.10925709 -0.09323139 26.46484375 -0.09765625 C27.20339096 -0.10281754 27.94193817 -0.10797882 28.7028656 -0.11329651 C30.46898088 -0.1134925 32.23497146 -0.06194719 34 0 C35 1 35 1 35.12025452 3.77772522 C35.11803391 5.01904709 35.11581329 6.26036896 35.11352539 7.53930664 C35.11367142 8.22220261 35.11381744 8.90509857 35.1139679 9.60868835 C35.11326876 11.87587614 35.1054764 14.14298274 35.09765625 16.41015625 C35.09579207 17.97814387 35.09436817 19.54613207 35.09336853 21.11412048 C35.08954334 25.24876503 35.07971306 29.38337466 35.06866455 33.51800537 C35.05845044 37.73400398 35.05387091 41.95000822 35.04882812 46.16601562 C35.03809079 54.44402647 35.02101436 62.7220089 35 71 C34.67 71 34.34 71 34 71 C34 48.56 34 26.12 34 3 C30.50791819 1.83597273 27.60852228 1.78881492 23.92578125 1.68359375 C23.2419487 1.66281265 22.55811615 1.64203156 21.8535614 1.62062073 C19.6733079 1.55533846 17.49293595 1.49633983 15.3125 1.4375 C13.83267014 1.39429447 12.35285217 1.35067953 10.87304688 1.30664062 C7.24882378 1.19967917 3.62446811 1.09835177 0 1 C0 0.67 0 0.34 0 0 Z " fill="#B87F3A" transform="translate(278,419)"/>
<path d="M0 0 C0.33 0 0.66 0 1 0 C1 11.55 1 23.1 1 35 C-10.55 35 -22.1 35 -34 35 C-34 34.01 -34 33.02 -34 32 C-22.78 32.33 -11.56 32.66 0 33 C0 22.11 0 11.22 0 0 Z " fill="#391900" transform="translate(383,420)"/>
<path d="M0 0 C0 0.99 0 1.98 0 3 C-11.55 3 -23.1 3 -35 3 C-34.67 2.01 -34.34 1.02 -34 0 C-29.47954554 -0.16749457 -24.95891882 -0.32806608 -20.43798828 -0.48217773 C-18.89950922 -0.53560391 -17.36109506 -0.59093379 -15.82275391 -0.64819336 C-13.61374914 -0.73008748 -11.40460276 -0.80517099 -9.1953125 -0.87890625 C-8.50567413 -0.90594131 -7.81603577 -0.93297638 -7.10549927 -0.96083069 C-2.22774341 -1.11387171 -2.22774341 -1.11387171 0 0 Z " fill="#2C1605" transform="translate(242,275)"/>
<path d="M0 0 C0.33 0 0.66 0 1 0 C1.01030746 0.84302673 1.02061493 1.68605347 1.03123474 2.55462646 C1.12922086 10.50016656 1.23173696 18.44563251 1.33933926 26.39104843 C1.39449859 30.47584116 1.44790733 34.56064114 1.49731445 38.64550781 C1.54506122 42.58777263 1.59740759 46.52995201 1.65294075 50.47211456 C1.67331762 51.97597373 1.69203832 53.47985629 1.70907402 54.98375702 C1.73322163 57.09049423 1.76326159 59.19707131 1.79467773 61.30371094 C1.81022202 62.50284119 1.8257663 63.70197144 1.84178162 64.93743896 C1.97293534 67.47612181 2.25589984 69.58444209 3 72 C2.01 72.495 2.01 72.495 1 73 C1 72.01 1 71.02 1 70 C-0.32 69.34 -1.64 68.68 -3 68 C-2.67657623 67.14143402 -2.35315247 66.28286804 -2.01992798 65.39828491 C-0.98676735 61.95591031 -0.72500795 59.20898277 -0.68115234 55.62744141 C-0.66128265 54.38660797 -0.64141296 53.14577454 -0.62094116 51.86734009 C-0.60906767 50.52874937 -0.59740464 49.19015676 -0.5859375 47.8515625 C-0.56720909 46.47007105 -0.54763444 45.08859084 -0.5272522 43.7071228 C-0.47610139 40.0872055 -0.43638503 36.46725118 -0.39910889 32.84716797 C-0.35896173 29.14671805 -0.30791848 25.44641985 -0.2578125 21.74609375 C-0.1612554 14.49750023 -0.07678666 7.24883279 0 0 Z " fill="#E9DD23" transform="translate(523,279)"/>
<path d="M0 0 C1.32 0 2.64 0 4 0 C4 0.99 4 1.98 4 3 C13.24 3 22.48 3 32 3 C32 2.34 32 1.68 32 1 C32.99 1 33.98 1 35 1 C35.495 2.98 35.495 2.98 36 5 C24.12 5 12.24 5 0 5 C0 3.35 0 1.7 0 0 Z " fill="#C87101" transform="translate(244,626)"/>
<path d="M0 0 C0.66 0.33 1.32 0.66 2 1 C1.67 12.88 1.34 24.76 1 37 C-2.96 37 -6.92 37 -11 37 C-11 36.67 -11 36.34 -11 36 C-7.7 36 -4.4 36 -1 36 C-1.0407666 34.9805127 -1.0815332 33.96102539 -1.12353516 32.91064453 C-1.2717847 29.13527169 -1.406509 25.3595173 -1.53710938 21.58349609 C-1.59558 19.94794282 -1.65773919 18.31251713 -1.72363281 16.67724609 C-1.8176061 14.32933786 -1.89838991 11.98129322 -1.9765625 9.6328125 C-2.00875885 8.89942657 -2.0409552 8.16604065 -2.0741272 7.41043091 C-2.12756428 5.60757645 -2.07280193 3.80217635 -2 2 C-1.34 1.34 -0.68 0.68 0 0 Z " fill="#160101" transform="translate(347,452)"/>
<path d="M0 0 C0.99 0.33 1.98 0.66 3 1 C2.67 1.33 2.34 1.66 2 2 C1.87642922 3.93223995 1.82205542 5.86893799 1.79467773 7.80493164 C1.77473251 9.04614273 1.75478729 10.28735382 1.73423767 11.56617737 C1.71725207 12.9308357 1.70037331 14.29549537 1.68359375 15.66015625 C1.66303064 17.04878875 1.64203434 18.4374149 1.62062073 19.82603455 C1.56533353 23.48714059 1.51595374 27.14830373 1.46777344 30.80950928 C1.41760679 34.54297997 1.36189554 38.27636738 1.30664062 42.00976562 C1.19897782 49.3397733 1.09755106 56.66985005 1 64 C1.66 64 2.32 64 3 64 C3 65.65 3 67.3 3 69 C1.02 69.99 1.02 69.99 -1 71 C-0.67 47.57 -0.34 24.14 0 0 Z " fill="#E9DE23" transform="translate(456,279)"/>
<path d="M0 0 C2.475 0.495 2.475 0.495 5 1 C4.01 1.33 3.02 1.66 2 2 C2 23.45 2 44.9 2 67 C3.32 67.33 4.64 67.66 6 68 C4.02 68 2.04 68 0 68 C0 45.56 0 23.12 0 0 Z " fill="#160101" transform="translate(314,421)"/>
<path d="M0 0 C11.55 0 23.1 0 35 0 C34.67 0.99 34.34 1.98 34 3 C30.7728409 4.32235492 27.57536793 4.03662404 24.140625 3.87890625 C22.46806641 3.80639648 22.46806641 3.80639648 20.76171875 3.73242188 C19.02341797 3.64831055 19.02341797 3.64831055 17.25 3.5625 C16.07566406 3.51029297 14.90132812 3.45808594 13.69140625 3.40429688 C10.79399336 3.27473776 7.89693507 3.13977553 5 3 C5 3.66 5 4.32 5 5 C4.01 5 3.02 5 2 5 C2 4.34 2 3.68 2 3 C1.34 3 0.68 3 0 3 C0 2.01 0 1.02 0 0 Z " fill="#1A1A1A" transform="translate(738,242)"/>
<path d="M0 0 C0.33 0 0.66 0 1 0 C1 21.78 1 43.56 1 66 C2.32 66.33 3.64 66.66 5 67 C4.505 67.99 4.505 67.99 4 69 C2.68 69 1.36 69 0 69 C0 46.23 0 23.46 0 0 Z " fill="#F6F6F6" transform="translate(598,350)"/>
<path d="M0 0 C21.78 0 43.56 0 66 0 C65.67 2.64 65.34 5.28 65 8 C64.67 8 64.34 8 64 8 C64 6.02 64 4.04 64 2 C32.32 1.505 32.32 1.505 0 1 C0 0.67 0 0.34 0 0 Z " fill="#FEF49F" transform="translate(564,632)"/>
<path d="M0 0 C0.90105469 0.16242187 1.80210937 0.32484375 2.73046875 0.4921875 C8.23475138 1.27673144 13.764261 1.14492186 19.3125 1.125 C20.95702148 1.13080078 20.95702148 1.13080078 22.63476562 1.13671875 C23.67955078 1.13542969 24.72433594 1.13414062 25.80078125 1.1328125 C26.75122314 1.13168457 27.70166504 1.13055664 28.6809082 1.12939453 C31.02585176 1.15236234 31.02585176 1.15236234 33 0 C32.67 1.32 32.34 2.64 32 4 C21.11 4 10.22 4 -1 4 C-0.67 2.68 -0.34 1.36 0 0 Z " fill="#0F0400" transform="translate(208,627)"/>
<path d="M0 0 C0.33 0 0.66 0 1 0 C1.33 19.8 1.66 39.6 2 60 C2.66 60.33 3.32 60.66 4 61 C2.02 61.66 0.04 62.32 -2 63 C-1.67 62.01 -1.34 61.02 -1 60 C-0.34 60 0.32 60 1 60 C0.67 59.34 0.34 58.68 0 58 C-0.09101612 56.1514292 -0.11753146 54.29953621 -0.11352539 52.44873047 C-0.11344986 51.28767792 -0.11337433 50.12662537 -0.11329651 48.9303894 C-0.10813522 47.67203278 -0.10297394 46.41367615 -0.09765625 45.1171875 C-0.0962413 43.83264679 -0.09482635 42.54810608 -0.09336853 41.22463989 C-0.08954911 37.80843158 -0.07972373 34.39226574 -0.06866455 30.97607422 C-0.05843807 27.49056574 -0.05386826 24.0050504 -0.04882812 20.51953125 C-0.03810096 13.67967005 -0.02103142 6.83983706 0 0 Z " fill="#F3E512" transform="translate(740,288)"/>
<path d="M0 0 C11.55 0 23.1 0 35 0 C35 0.33 35 0.66 35 1 C33.55379272 1.03758423 33.55379272 1.03758423 32.07836914 1.07592773 C28.51312158 1.16985306 24.94807567 1.27010939 21.38305664 1.37231445 C19.83785711 1.41571985 18.29260786 1.45739071 16.74731445 1.49731445 C14.53060904 1.55488199 12.3141552 1.61861424 10.09765625 1.68359375 C9.05545677 1.70866249 9.05545677 1.70866249 7.99220276 1.73423767 C4.71237971 1.56502856 4.71237971 1.56502856 2 3 C1.84111908 5.28988781 1.74861927 7.58443441 1.68359375 9.87890625 C1.66281265 10.5655687 1.64203156 11.25223114 1.62062073 11.95970154 C1.55505857 14.16052935 1.49620985 16.36147975 1.4375 18.5625 C1.39432108 20.05144514 1.350707 21.54037773 1.30664062 23.02929688 C1.1993707 26.68606553 1.09812228 30.34297318 1 34 C0.67 34 0.34 34 0 34 C0 22.78 0 11.56 0 0 Z " fill="#E29E45" transform="translate(349,455)"/>
<path d="M0 0 C0.33 0 0.66 0 1 0 C1.01030746 0.77007889 1.02061493 1.54015778 1.03123474 2.33357239 C1.12917727 9.58777357 1.23168711 16.84188896 1.33933926 24.09595203 C1.39452396 27.82541274 1.44793681 31.55488136 1.49731445 35.28442383 C1.54502374 38.88304643 1.59736887 42.48157437 1.65294075 46.08008385 C1.67333457 47.45358615 1.69205255 48.82711438 1.70907402 50.20066261 C1.73318357 52.12317485 1.76378238 54.04560241 1.79467773 55.96801758 C1.81022202 57.06277908 1.8257663 58.15754059 1.84178162 59.28547668 C1.88735656 62.09622104 1.88735656 62.09622104 3 65 C1.515 65.495 1.515 65.495 0 66 C0 44.22 0 22.44 0 0 Z " fill="#08020C" transform="translate(564,353)"/>
<path d="M0 0 C2 3.875 2 3.875 2 5 C-8.23 5 -18.46 5 -29 5 C-28.67 4.34 -28.34 3.68 -28 3 C-19.75 3 -11.5 3 -3 3 C-2.67 2.34 -2.34 1.68 -2 1 C-2 1.66 -2 2.32 -2 3 C-1.34 3 -0.68 3 0 3 C0 2.01 0 1.02 0 0 Z " fill="#0E0801" transform="translate(771,626)"/>
<path d="M0 0 C-0.33 0.99 -0.66 1.98 -1 3 C-4.96 3 -8.92 3 -13 3 C-13 2.34 -13 1.68 -13 1 C-18.28 1 -23.56 1 -29 1 C-29 0.67 -29 0.34 -29 0 C-24.5420032 -0.19616609 -20.08359465 -0.38047068 -15.625 -0.5625 C-14.35398437 -0.61857422 -13.08296875 -0.67464844 -11.7734375 -0.73242188 C-10.56171875 -0.78076172 -9.35 -0.82910156 -8.1015625 -0.87890625 C-6.98088379 -0.9260376 -5.86020508 -0.97316895 -4.70556641 -1.02172852 C-2 -1 -2 -1 0 0 Z " fill="#F4961A" transform="translate(349,491)"/>
<path d="M0 0 C0.495 1.485 0.495 1.485 1 3 C-13.85 2.505 -13.85 2.505 -29 2 C-29.66 3.32 -30.32 4.64 -31 6 C-31.99 6.495 -31.99 6.495 -33 7 C-33.042721 5.33388095 -33.04063832 3.66617115 -33 2 C-31.0769111 0.0769111 -27.52929515 0.74678162 -24.90234375 0.68359375 C-23.83905602 0.6524221 -23.83905602 0.6524221 -22.75428772 0.62062073 C-20.48212695 0.55505402 -18.20984736 0.4962077 -15.9375 0.4375 C-14.40037817 0.39432151 -12.8632685 0.35070745 -11.32617188 0.30664062 C-7.5509041 0.19936551 -3.7755164 0.09811863 0 0 Z " fill="#F1E310" transform="translate(666,491)"/>
<path d="M0 0 C10.89 0 21.78 0 33 0 C33 0.33 33 0.66 33 1 C32.13197754 1.02505615 31.26395508 1.0501123 30.36962891 1.07592773 C27.15286837 1.17099484 23.93627151 1.27023203 20.71972656 1.37231445 C19.3268741 1.41565846 17.93396869 1.45733396 16.54101562 1.49731445 C14.54023349 1.55502932 12.53964141 1.61921869 10.5390625 1.68359375 C9.33459473 1.72025146 8.13012695 1.75690918 6.88916016 1.79467773 C4.06003633 1.81052987 4.06003633 1.81052987 2 3 C1.53348793 5.12576782 1.53348793 5.12576782 1.375 7.5625 C1.30023437 8.38878906 1.22546875 9.21507812 1.1484375 10.06640625 C1.09945312 10.70449219 1.05046875 11.34257812 1 12 C0.67 12 0.34 12 0 12 C0 8.04 0 4.08 0 0 Z " fill="#F5EC43" transform="translate(668,420)"/>
<path d="M0 0 C8.91 0 17.82 0 27 0 C27 0.33 27 0.66 27 1 C26.04738281 1.06058594 25.09476563 1.12117187 24.11328125 1.18359375 C22.85902344 1.26738281 21.60476562 1.35117187 20.3125 1.4375 C19.07113281 1.51871094 17.82976562 1.59992187 16.55078125 1.68359375 C13.10315096 1.92620274 13.10315096 1.92620274 10.16796875 2.56640625 C7.71954602 3.0560908 6.38873661 2.59718415 4 2 C1.31850007 2.38567131 1.31850007 2.38567131 -1 3 C-0.67 2.01 -0.34 1.02 0 0 Z " fill="#F79512" transform="translate(213,633)"/>
<path d="M0 0 C0.52110352 0.16298584 1.04220703 0.32597168 1.57910156 0.49389648 C4.67363154 1.14082676 7.57253596 1.11152397 10.734375 1.09765625 C12.67763672 1.09282227 12.67763672 1.09282227 14.66015625 1.08789062 C16.02343817 1.07953598 17.38671942 1.07107104 18.75 1.0625 C20.12890465 1.05748168 21.50781104 1.05291935 22.88671875 1.04882812 C26.25785659 1.03704093 29.62890628 1.02058635 33 1 C33 1.66 33 2.32 33 3 C22.11 3 11.22 3 0 3 C0 2.01 0 1.02 0 0 Z " fill="#F1EA28" transform="translate(738,592)"/>
<path d="M0 0 C11.22 0 22.44 0 34 0 C32.68 0.99 31.36 1.98 30 3 C29.34 2.67 28.68 2.34 28 2 C25.96767366 1.91472372 23.93252994 1.89283865 21.8984375 1.90234375 C20.08085937 1.90717773 20.08085937 1.90717773 18.2265625 1.91210938 C16.95554687 1.92048828 15.68453125 1.92886719 14.375 1.9375 C12.456875 1.94426758 12.456875 1.94426758 10.5 1.95117188 C7.33328708 1.96298797 4.16666644 1.97946185 1 2 C0.67 1.34 0.34 0.68 0 0 Z " fill="#C47301" transform="translate(243,597)"/>
<path d="M0 0 C0.33 0 0.66 0 1 0 C1.33 9.24 1.66 18.48 2 28 C0.35 28 -1.3 28 -3 28 C-3.33 27.34 -3.66 26.68 -4 26 C-3.01 25.67 -2.02 25.34 -1 25 C-0.67 16.75 -0.34 8.5 0 0 Z " fill="#F3F4F5" transform="translate(204,249)"/>
<path d="M0 0 C0.99 0 1.98 0 3 0 C2.125 3.875 2.125 3.875 1 5 C0.76346477 7.52596259 0.57826308 10.03107207 0.4375 12.5625 C0.39431641 13.27341797 0.35113281 13.98433594 0.30664062 14.71679688 C0.20028223 16.47761912 0.09961154 18.2387832 0 20 C-0.33 20 -0.66 20 -1 20 C-1.02689449 17.04160645 -1.04678741 14.08345573 -1.0625 11.125 C-1.07087891 10.28324219 -1.07925781 9.44148438 -1.08789062 8.57421875 C-1.09111328 7.76855469 -1.09433594 6.96289062 -1.09765625 6.1328125 C-1.10289307 5.38918457 -1.10812988 4.64555664 -1.11352539 3.87939453 C-1 2 -1 2 0 0 Z " fill="#F1950A" transform="translate(388,428)"/>
<path d="M0 0 C0 0.99 0 1.98 0 3 C-7.26 3 -14.52 3 -22 3 C-22 2.67 -22 2.34 -22 2 C-20.80761719 1.93941406 -19.61523438 1.87882812 -18.38671875 1.81640625 C-16.82030075 1.73198851 -15.25389512 1.64734113 -13.6875 1.5625 C-12.90181641 1.52318359 -12.11613281 1.48386719 -11.30664062 1.44335938 C-10.54931641 1.40146484 -9.79199219 1.35957031 -9.01171875 1.31640625 C-8.31522217 1.27974854 -7.61872559 1.24309082 -6.90112305 1.20532227 C-4.47401587 0.94319344 -2.45741905 0 0 0 Z " fill="#0A0705" transform="translate(454,344)"/>
<path d="M0 0 C0 1.65 0 3.3 0 5 C-3.63 5 -7.26 5 -11 5 C-11 4.34 -11 3.68 -11 3 C-9.906875 2.87625 -8.81375 2.7525 -7.6875 2.625 C-5.03842767 2.17600469 -2.31837927 0 0 0 Z " fill="#0E0901" transform="translate(525,272)"/>
<path d="M0 0 C0.99 0 1.98 0 3 0 C3.04254356 1.99954746 3.04080783 4.00041636 3 6 C2 7 2 7 -0.5625 7.0625 C-1.7690625 7.0315625 -1.7690625 7.0315625 -3 7 C-2.01 4.69 -1.02 2.38 0 0 Z " fill="#FBFBF1" transform="translate(777,624)"/>
<path d="M0 0 C1.32 0 2.64 0 4 0 C4 2.64 4 5.28 4 8 C3.01 7.67 2.02 7.34 1 7 C0.67 4.69 0.34 2.38 0 0 Z " fill="#DE680A" transform="translate(250,600)"/>
<path d="M0 0 C1.85776765 3.13498292 2.20140476 5.37471432 2 9 C1.01 9.33 0.02 9.66 -1 10 C-1.02689216 8.52093108 -1.04634621 7.04172517 -1.0625 5.5625 C-1.07410156 4.73878906 -1.08570313 3.91507812 -1.09765625 3.06640625 C-1 1 -1 1 0 0 Z " fill="#FCE212" transform="translate(747,338)"/>
<path d="M0 0 C1.65 0 3.3 0 5 0 C5 1.65 5 3.3 5 5 C3.02 5 1.04 5 -1 5 C-0.67 3.35 -0.34 1.7 0 0 Z " fill="#F7F8F9" transform="translate(449,272)"/>
<path d="M0 0 C1.65 0 3.3 0 5 0 C5.33 2.31 5.66 4.62 6 7 C5.34 7 4.68 7 4 7 C4 6.01 4 5.02 4 4 C3.34 4 2.68 4 2 4 C2 3.34 2 2.68 2 2 C1.34 2 0.68 2 0 2 C0 1.34 0 0.68 0 0 Z " fill="#FAFC99" transform="translate(625,694)"/>
<path d="M0 0 C0.66 0.33 1.32 0.66 2 1 C1.67 3.97 1.34 6.94 1 10 C0.34 10 -0.32 10 -1 10 C-1.125 2.25 -1.125 2.25 0 0 Z " fill="#D66B14" transform="translate(246,598)"/>
<path d="M0 0 C2.31 0 4.62 0 7 0 C7 0.99 7 1.98 7 3 C4.69 3 2.38 3 0 3 C0 2.01 0 1.02 0 0 Z " fill="#F6F7F2" transform="translate(659,416)"/>
<path d="M0 0 C1.32 0 2.64 0 4 0 C3.67 0.99 3.34 1.98 3 3 C2.67 3 2.34 3 2 3 C1.67 5.97 1.34 8.94 1 12 C0.67 12 0.34 12 0 12 C0 8.04 0 4.08 0 0 Z " fill="#ECE53F" transform="translate(668,420)"/>
<path d="M0 0 C1.32 0.66 2.64 1.32 4 2 C4 3.32 4 4.64 4 6 C2.35 6 0.7 6 -1 6 C-0.67 4.02 -0.34 2.04 0 0 Z " fill="#0D0605" transform="translate(273,342)"/>
<path d="M0 0 C1.32 0 2.64 0 4 0 C3.67 1.65 3.34 3.3 3 5 C1.68 4.67 0.36 4.34 -1 4 C-0.67 2.68 -0.34 1.36 0 0 Z " fill="#F5F8F1" transform="translate(244,272)"/>
<path d="M0 0 C2.625 -0.1875 2.625 -0.1875 5 0 C4.67 0.99 4.34 1.98 4 3 C2.02 3 0.04 3 -2 3 C-1.34 2.01 -0.68 1.02 0 0 Z " fill="#F3F8FA" transform="translate(372,416)"/>
</svg>
