<?xml version="1.0" encoding="UTF-8"?>
<svg version="1.1" xmlns="http://www.w3.org/2000/svg" width="1024" height="1024">
<!-- <path d="M0 0 C337.92 0 675.84 0 1024 0 C1024 337.92 1024 675.84 1024 1024 C686.08 1024 348.16 1024 0 1024 C0 686.08 0 348.16 0 0 Z " fill="#FDFEFE" transform="translate(0,0)"/> -->
<path d="M0 0 C0.80146309 -0.00436032 1.60292619 -0.00872064 2.42867604 -0.0132131 C5.13716615 -0.02423558 7.84515421 -0.01371502 10.55364132 -0.00342751 C12.50583834 -0.0068813 14.45803342 -0.01164399 16.41022438 -0.01760924 C21.79258213 -0.03018698 27.17478127 -0.0239182 32.55713975 -0.01465058 C38.35473664 -0.00788809 44.15230544 -0.01832733 49.94989681 -0.02659035 C61.31414847 -0.03995964 72.67834083 -0.03703581 84.04259486 -0.02835242 C93.27449179 -0.02158917 102.50637206 -0.02065326 111.73827076 -0.02392387 C113.05003271 -0.02438357 114.36179466 -0.02484327 115.71330697 -0.0253169 C117.70980876 -0.02603559 119.70631054 -0.02675432 121.70281231 -0.02749758 C146.66606333 -0.0366802 171.62928193 -0.02834508 196.59252795 -0.01220688 C218.78701616 0.00203223 240.98145275 0.00075531 263.17594051 -0.01358986 C288.09419276 -0.02964155 313.01241636 -0.03603072 337.93067306 -0.02675307 C340.58524827 -0.02579737 343.23982348 -0.02485426 345.89439869 -0.02392387 C347.20065646 -0.02346105 348.50691423 -0.02299822 349.85275557 -0.02252137 C359.07917441 -0.01992588 368.30557499 -0.02431446 377.531991 -0.03136253 C388.7677757 -0.03975655 400.00349748 -0.0375417 411.23927493 -0.0215203 C416.97715879 -0.01360946 422.71493758 -0.01059365 428.45282078 -0.02046776 C433.69759497 -0.02935714 438.94216592 -0.02457769 444.18692147 -0.0085351 C446.09196713 -0.00516274 447.99702969 -0.00693581 449.90206463 -0.01416247 C452.47652453 -0.02318515 455.05027315 -0.01403147 457.62469482 0 C458.75381056 -0.01053525 458.75381056 -0.01053525 459.90573671 -0.02128333 C461.97159201 0.00147593 461.97159201 0.00147593 465.24942684 0.37752342 C467.65036526 3.97893105 467.4965993 5.56921828 467.48993587 9.85046959 C467.49249915 10.8404924 467.49249915 10.8404924 467.49511421 11.85051566 C467.49841339 14.06625239 467.4873986 16.28168755 467.47647762 18.49739647 C467.4759136 20.08402563 467.47622989 21.67065531 467.47736263 23.25728416 C467.4779375 27.56899802 467.46616158 31.88060106 467.45221472 36.19228911 C467.43972962 40.6966399 467.43853861 45.20099309 467.4361639 49.70535851 C467.42994259 58.23698968 467.41352298 66.76856971 467.39346492 75.30017835 C467.37112616 85.01226878 467.36011759 94.72436163 467.35007405 104.43647134 C467.32915731 124.4168506 467.2939687 144.39718379 467.24942684 164.37752342 C468.19334286 164.36809715 469.13725887 164.35867088 470.1097784 164.34895897 C471.35726864 164.34162743 472.60475887 164.33429588 473.89005184 164.32674217 C475.12271786 164.3173159 476.35538387 164.30788963 477.6254034 164.29817772 C488.27733872 164.53139511 498.8358915 167.45681176 508.24942684 172.37752342 C510.23810398 173.07724315 512.23550735 173.75416739 514.24942684 174.37752342 C514.24942684 175.03752342 514.24942684 175.69752342 514.24942684 176.37752342 C514.90942684 176.62502342 515.56942684 176.87252342 516.24942684 177.12752342 C520.01303592 178.69569387 523.62056924 180.52257388 527.24942684 182.37752342 C527.24942684 183.03752342 527.24942684 183.69752342 527.24942684 184.37752342 C527.83208309 184.6430703 528.41473934 184.90861717 529.01505184 185.18221092 C532.93441273 187.27893196 535.99684643 190.38063032 539.24942684 193.37752342 C539.90298153 193.96533592 540.55653622 194.55314842 541.22989559 195.15877342 C553.95514551 207.14743202 562.64501696 223.64893876 567.24942684 240.37752342 C567.47501278 241.17545311 567.70059872 241.9733828 567.93302059 242.79549217 C572.32091925 261.82989395 570.10103211 286.15118286 563.24942684 304.37752342 C562.58942684 305.03752342 561.92942684 305.69752342 561.24942684 306.37752342 C560.83048153 307.39974998 560.41153622 308.42197655 559.97989559 309.47517967 C558.1120148 314.00911059 555.38701994 317.83073084 552.56192684 321.81502342 C552.05081356 322.54656639 551.53970028 323.27810936 551.01309872 324.0318203 C549.76417035 325.81767114 548.50758301 327.59816164 547.24942684 329.37752342 C548.80395332 332.862315 550.65591753 334.70121653 553.65958309 337.08064842 C556.02671875 339.01157972 558.12126156 341.19024244 560.24942684 343.37752342 C560.90942684 344.03752342 561.56942684 344.69752342 562.24942684 345.37752342 C562.81850229 351.63735339 562.81850229 351.63735339 560.97940731 354.02937889 C559.02695134 355.55089482 557.66970041 356.00711293 555.25723934 356.51033592 C554.47590633 356.67614159 553.69457333 356.84194725 552.88956356 357.01277733 C552.05956844 357.17439354 551.22957333 357.33600975 550.37442684 357.50252342 C549.52251766 357.6757412 548.67060848 357.84895897 547.79288387 358.02742577 C541.87059935 359.18509005 536.03588116 359.84564055 530.00723934 360.17049217 C527.55504218 360.35458063 525.37849879 360.72251691 522.99942684 361.31502342 C518.55995274 362.41455798 514.09713165 362.96672881 509.56192684 363.50252342 C508.47379696 363.63388695 508.47379696 363.63388695 507.36368465 363.76790428 C496.46339452 365.01089786 496.46339452 365.01089786 492.37442684 362.87752342 C489.94824275 360.0231892 489.71049352 358.38868899 489.94864559 354.69392967 C490.39592107 351.24932758 491.00618088 347.85124768 491.67911434 344.44392967 C492.31285557 341.03648537 492.78657243 337.62469705 493.24942684 334.19002342 C493.9563835 329.11429556 494.93061675 324.32306127 496.24942684 319.37752342 C497.76751177 312.90627087 498.51736383 306.69133097 498.71036434 300.04158592 C499.39379238 296.66406473 500.55078591 295.4656998 503.24942684 293.37752342 C506.68692684 292.81502342 506.68692684 292.81502342 510.24942684 293.37752342 C512.68692684 295.37752342 512.68692684 295.37752342 515.24942684 298.37752342 C516.634084 299.80511569 518.03063826 301.22123484 519.43692684 302.62752342 C520.44819637 303.6561953 520.44819637 303.6561953 521.47989559 304.70564842 C523.1574168 306.45201453 523.1574168 306.45201453 525.24942684 307.37752342 C525.52012997 306.66982811 525.79083309 305.9621328 526.06973934 305.23299217 C527.69315694 301.3034615 529.66528029 297.57826766 531.61661434 293.80330467 C532.42485653 292.10754295 532.42485653 292.10754295 533.24942684 290.37752342 C533.6037579 289.66330223 533.95808895 288.94908104 534.32315731 288.21321678 C537.51580854 281.19548831 537.79202881 274.94973411 537.62442684 267.31502342 C537.62313778 266.19547264 537.62184872 265.07592186 537.62052059 263.9224453 C537.41243049 244.21168889 529.96920018 228.39024566 516.24942684 214.37752342 C515.73122372 213.82322655 515.21302059 213.26892967 514.67911434 212.69783592 C502.51113154 200.91209342 483.08201095 196.63932115 467.24942684 194.37752342 C467.24942684 254.10752342 467.24942684 313.83752342 467.24942684 375.37752342 C463.28942684 375.37752342 459.32942684 375.37752342 455.24942684 375.37752342 C455.24942684 332.47752342 455.24942684 289.57752342 455.24942684 245.37752342 C382.31942684 245.37752342 309.38942684 245.37752342 234.24942684 245.37752342 C234.24942684 317.64752342 234.24942684 389.91752342 234.24942684 464.37752342 C288.69942684 464.37752342 343.14942684 464.37752342 399.24942684 464.37752342 C399.24942684 468.33752342 399.24942684 472.29752342 399.24942684 476.37752342 C347.4511164 476.46900011 295.65281409 476.53952202 243.85443882 476.58178474 C237.74464629 476.5867878 231.63485391 476.59196507 225.52506161 476.59724998 C224.30866833 476.59829923 223.09227505 476.59934847 221.83902136 476.60042951 C202.12135095 476.61785347 182.40372699 476.6494021 162.68608417 476.68613461 C142.46676071 476.72348866 122.24746164 476.74574754 102.02810508 476.7538774 C89.54312342 476.75937668 77.05827307 476.77677006 64.57333181 476.80918929 C56.02181514 476.8302689 47.47036674 476.83673839 38.91882595 476.83152893 C33.97873909 476.82895691 29.0388823 476.83300809 24.09883595 476.85434532 C19.58167368 476.87371445 15.06489765 476.87485668 10.54771814 476.861119 C8.90836775 476.85941946 7.2689939 476.86457518 5.62969013 476.87705615 C3.41092625 476.89297481 1.19357956 476.88454225 -1.02515984 476.86971474 C-2.26039007 476.87123362 -3.4956203 476.8727525 -4.76828176 476.87431741 C-7.75057316 476.37752342 -7.75057316 476.37752342 -9.64731628 474.83478385 C-11.17971776 471.42169884 -11.16288792 468.2401134 -11.12809658 464.56916523 C-11.1324569 463.77360138 -11.13681723 462.97803754 -11.14130968 462.1583657 C-11.15231215 459.47595271 -11.14182081 456.79404879 -11.13152409 454.11163902 C-11.13497867 452.17579082 -11.13974189 450.23994458 -11.14570582 448.30410248 C-11.15827272 442.97154042 -11.15201964 437.63913866 -11.14274716 432.30657589 C-11.13598029 426.56078428 -11.14642611 420.81502091 -11.15468693 415.06923485 C-11.16805149 403.8083911 -11.16513448 392.54760722 -11.15644901 381.2867611 C-11.1496839 372.13832532 -11.14875065 362.98990637 -11.15202045 353.84146881 C-11.15248015 352.54123252 -11.15293985 351.24099622 -11.15341348 349.90135883 C-11.15437262 347.26026916 -11.15534526 344.61917948 -11.15633126 341.97808982 C-11.1646488 317.89947154 -11.15601202 293.8208848 -11.14030346 269.74227165 C-11.1260645 247.74900798 -11.12734145 225.75579641 -11.14168644 203.76253319 C-11.15774055 179.0662015 -11.16407066 154.36989982 -11.15484965 129.67356354 C-11.15389396 127.04229645 -11.15295085 124.41102936 -11.15202045 121.77976227 C-11.15155763 120.48499664 -11.1510948 119.19023101 -11.15061795 117.85623006 C-11.14802318 108.7139264 -11.15240948 99.57164117 -11.15945911 90.42934036 C-11.1678558 79.2949842 -11.16563261 68.16069153 -11.14961688 57.02634268 C-11.14170967 51.34098458 -11.13868413 45.65573248 -11.14856434 39.97037506 C-11.15746112 34.77246522 -11.15266178 29.57476029 -11.13663168 24.37686921 C-11.13326251 22.49000513 -11.13502541 20.60312396 -11.14225905 18.71627074 C-11.15129823 16.16394305 -11.14211076 13.61232995 -11.12809658 11.06004047 C-11.13512008 10.31662689 -11.14214358 9.57321331 -11.14937991 8.80727205 C-11.11895306 6.0605921 -11.01338507 3.87234207 -9.71138877 1.42096132 C-6.59765897 -0.23599391 -3.44057325 -0.03220253 0 0 Z " fill="#3F464A" transform="translate(270.75057315826416,268.6224765777588)"/>
<path d="M0 0 C10.125 0 10.125 0 14 1 C14 1.33 14 1.66 14 2 C9.71 2 5.42 2 1 2 C1.495 93.575 1.495 93.575 2 187 C15.2 187.33 28.4 187.66 42 188 C45 191 45 191 45.37473011 192.90688324 C45.37456237 193.63028145 45.37439463 194.35367966 45.3742218 195.09899902 C45.38123611 195.93178879 45.38825043 196.76457855 45.39547729 197.62260437 C45.38783356 198.53282852 45.38018982 199.44305267 45.37231445 200.38085938 C45.37596512 201.34208206 45.37961578 202.30330475 45.38337708 203.2936554 C45.39149597 206.4771989 45.37786113 209.66023555 45.36328125 212.84375 C45.36276281 215.05187988 45.3632799 217.26001023 45.36479187 219.46813965 C45.36470209 224.09845866 45.35426 228.72860378 45.33618164 233.35888672 C45.31349438 239.30101574 45.31294975 245.24289055 45.31969929 251.18505096 C45.32303709 255.74544544 45.31641272 260.30578171 45.30657005 264.86616516 C45.30271451 267.05747676 45.3015713 269.24879483 45.3031559 271.44010925 C45.3035258 274.49991238 45.29092727 277.55938677 45.2746582 280.61914062 C45.27837433 281.98447685 45.27837433 281.98447685 45.28216553 283.37739563 C45.27508072 284.21018539 45.26799591 285.04297516 45.26069641 285.90100098 C45.25864354 286.62439919 45.25659067 287.34779739 45.25447559 288.09311676 C45 290 45 290 43 293 C39.84655949 293.30193095 36.88898731 293.4091586 33.73266602 293.38818359 C32.29105103 293.39606903 32.29105103 293.39606903 30.8203125 293.40411377 C27.63134691 293.41735831 24.44287725 293.40855916 21.25390625 293.3984375 C19.04434615 293.40045712 16.83478669 293.40336761 14.62522888 293.40713501 C9.9889391 293.41156454 5.35282243 293.40510762 0.71655273 293.39111328 C-5.23351817 293.37403115 -11.18318285 293.38385265 -17.13323879 293.40183067 C-21.69793266 293.41265998 -26.26252989 293.40922589 -30.82722664 293.4014473 C-33.02133291 293.39944241 -35.21544788 293.40191461 -37.40954399 293.40888596 C-40.4743569 293.41648519 -43.538508 293.40491692 -46.60327148 293.38818359 C-47.51506668 293.39425629 -48.42686188 293.40032898 -49.36628723 293.40658569 C-50.20052216 293.39812622 -51.03475708 293.38966675 -51.89427185 293.38095093 C-52.61896888 293.37981985 -53.3436659 293.37868877 -54.09032345 293.37752342 C-56.56100856 292.88909437 -57.45157778 291.94725359 -59 290 C-59.66957496 287.32681142 -59.77362708 284.76174963 -60 282 C-61.0058148 282.16246214 -62.01162959 282.32492428 -63.04792362 282.49230951 C-66.83302413 282.97854999 -70.419893 283.12421864 -74.23322201 283.12304783 C-74.93015538 283.12420167 -75.62708875 283.12535552 -76.34514132 283.12654433 C-78.6737984 283.12918519 -81.00238593 283.12470978 -83.33103943 283.12025452 C-85.01999953 283.12069074 -86.70895956 283.12156658 -88.39791924 283.12284368 C-93.03395457 283.12507867 -97.66996678 283.12108095 -102.30599916 283.11606562 C-107.30728617 283.11174704 -112.30857188 283.11320855 -117.30986023 283.1139679 C-125.97325894 283.11449224 -134.63665011 283.1113548 -143.30004692 283.10573006 C-155.82586403 283.09760291 -168.3516775 283.09499859 -180.87749697 283.09374207 C-201.19982752 283.09155346 -221.52215405 283.08489855 -241.84448242 283.07543945 C-261.58569316 283.06626039 -281.3269028 283.05918197 -301.06811523 283.05493164 C-302.28497037 283.05466892 -303.5018255 283.05440619 -304.75555503 283.05413551 C-310.86016165 283.05283047 -316.96476828 283.05156676 -323.06937492 283.05032361 C-373.71291939 283.03995695 -424.3564595 283.02234382 -475 283 C-475 282.67 -475 282.34 -475 282 C-340.69 282 -206.38 282 -68 282 C-68 278.04 -68 274.08 -68 270 C-122.45 270 -176.9 270 -233 270 C-233 197.73 -233 125.46 -233 51 C-160.07 51 -87.14 51 -12 51 C-12 93.9 -12 136.8 -12 181 C-8.04 181 -4.08 181 0 181 C0 121.27 0 61.54 0 0 Z " fill="#CAC3DC" transform="translate(738,463)"/>
<path d="M0 0 C72.93 0 145.86 0 221 0 C221 72.93 221 145.86 221 221 C148.07 221 75.14 221 0 221 C0 148.07 0 75.14 0 0 Z " fill="#52B4BB" transform="translate(272,281)"/>
<path d="M0 0 C72.93 0 145.86 0 221 0 C221.020625 36.279375 221.04125 72.55875 221.0625 109.9375 C221.071604 121.41394287 221.08070801 132.89038574 221.09008789 144.71459961 C221.09460449 158.67492676 221.09460449 158.67492676 221.09544373 165.19996643 C221.09637944 169.77992736 221.10014295 174.35987683 221.10557556 178.93983459 C221.11240017 184.76994228 221.11449759 190.60003312 221.11307228 196.43014443 C221.11337061 198.57723463 221.11537381 200.72432537 221.11921513 202.87141216 C221.12414033 205.75686145 221.12300796 208.6422441 221.12025452 211.5276947 C221.12316718 212.38054833 221.12607985 213.23340197 221.12908077 214.11209965 C221.11412483 219.88587517 221.11412483 219.88587517 220 221 C217.1679156 221.09791925 214.36020217 221.12992809 211.5276947 221.12025452 C210.63063812 221.12111053 209.73358154 221.12196655 208.80934143 221.12284851 C205.76992862 221.12451419 202.73056995 221.11896315 199.69116211 221.11352539 C197.48833245 221.11321931 195.28550269 221.11335211 193.08267307 221.11389065 C187.16132101 221.11411724 181.23998898 221.10830393 175.31864166 221.10128021 C169.77073602 221.0956028 164.22283536 221.09531805 158.67492676 221.09460449 C142.42911516 221.08934847 126.18330733 221.07538743 109.9375 221.0625 C73.658125 221.041875 37.37875 221.02125 0 221 C0 148.07 0 75.14 0 0 Z " fill="#F1785A" transform="translate(505,281)"/>
<path d="M0 0 C0.84127441 -0.00563965 1.68254883 -0.0112793 2.54931641 -0.01708984 C3.93642822 -0.01101715 3.93642822 -0.01101715 5.3515625 -0.00482178 C6.32399902 -0.00832642 7.29643555 -0.01183105 8.29833984 -0.01544189 C11.5244859 -0.02427073 14.75041407 -0.01840596 17.9765625 -0.01165771 C20.21093793 -0.01300403 22.44531308 -0.01494428 24.6796875 -0.01745605 C29.36721581 -0.02040888 34.05466802 -0.01610455 38.7421875 -0.0067749 C44.76178038 0.00461968 50.78119492 -0.00193894 56.80078125 -0.01391983 C61.41602938 -0.02113413 66.03123499 -0.01885248 70.64648438 -0.01366425 C72.86653667 -0.01232656 75.08659278 -0.0139796 77.30664062 -0.01862335 C80.40505254 -0.0236815 83.50317243 -0.0159883 86.6015625 -0.00482178 C87.52630371 -0.00887024 88.45104492 -0.0129187 89.40380859 -0.01708984 C90.66572021 -0.00863037 90.66572021 -0.00863037 91.953125 0 C92.68611816 0.00075405 93.41911133 0.0015081 94.17431641 0.002285 C95.9765625 0.25396729 95.9765625 0.25396729 97.9765625 2.25396729 C98.17560737 5.37227707 98.24917168 8.4018223 98.23535156 11.52130127 C98.2388562 12.48237793 98.24236084 13.44345459 98.24597168 14.43365479 C98.25480112 17.62252954 98.24893507 20.81118387 98.2421875 24.00006104 C98.24353391 26.20962059 98.24547424 28.41917986 98.24798584 30.6287384 C98.25093884 35.26499241 98.2466342 39.90116947 98.23730469 44.53741455 C98.22591675 50.48740746 98.23246441 56.43721982 98.24444962 62.38720608 C98.25166913 66.95188258 98.24937974 71.51651614 98.24419403 76.08119392 C98.24285744 78.27529992 98.24450556 80.46940979 98.24915314 82.66351128 C98.25421907 85.72819248 98.24650673 88.79257953 98.23535156 91.85723877 C98.23940002 92.76903397 98.24344849 93.68082916 98.24761963 94.62025452 C98.24197998 95.45448944 98.23634033 96.28872437 98.23052979 97.14823914 C98.22977573 97.87293616 98.22902168 98.59763319 98.22824478 99.34429073 C97.9765625 101.25396729 97.9765625 101.25396729 95.9765625 104.25396729 C92.82312199 104.55589823 89.86554981 104.66312589 86.70922852 104.64215088 C85.26761353 104.65003632 85.26761353 104.65003632 83.796875 104.65808105 C80.60790941 104.6713256 77.41943975 104.66252644 74.23046875 104.65240479 C72.02090865 104.6544244 69.81134919 104.6573349 67.60179138 104.66110229 C62.9655016 104.66553183 58.32938493 104.65907491 53.69311523 104.64508057 C47.74304433 104.62799844 41.79337965 104.63781993 35.84332371 104.65579796 C31.27862984 104.66662726 26.71403261 104.66319318 22.14933586 104.65541458 C19.95522959 104.6534097 17.76111462 104.6558819 15.56701851 104.66285324 C12.5022056 104.67045247 9.4380545 104.65888421 6.37329102 104.64215088 C5.46149582 104.64822357 4.54970062 104.65429626 3.61027527 104.66055298 C2.77604034 104.65209351 1.94180542 104.64363403 1.08229065 104.63491821 C0.35759362 104.63378714 -0.3671034 104.63265606 -1.11376095 104.63149071 C-3.63955316 104.13216755 -4.5131787 103.31981339 -6.0234375 101.25396729 C-6.39816761 99.34429073 -6.39816761 99.34429073 -6.3976593 97.14823914 C-6.40467361 96.31400421 -6.41168793 95.47976929 -6.41891479 94.62025452 C-6.41127106 93.70845932 -6.40362732 92.79666412 -6.39575195 91.85723877 C-6.39940262 90.89440979 -6.40305328 89.93158081 -6.40681458 88.9395752 C-6.41493271 85.75122541 -6.40130026 82.56338179 -6.38671875 79.37506104 C-6.38620034 77.16453553 -6.3867173 74.95400955 -6.38822937 72.7434845 C-6.38813959 68.10896937 -6.37769797 63.47462801 -6.35961914 58.84014893 C-6.33691864 52.88895348 -6.3363897 46.93801177 -6.34313679 40.98678493 C-6.34647222 36.42214183 -6.33985494 31.85755696 -6.33000755 27.29292488 C-6.3261489 25.09799568 -6.32501008 22.90306 -6.3265934 20.70812798 C-6.32696274 17.64572596 -6.31438106 14.5836539 -6.2980957 11.52130127 C-6.30057312 10.60748184 -6.30305054 9.69366241 -6.30560303 8.75215149 C-6.2310772 0.00641009 -6.2310772 0.00641009 0 0 Z " fill="#444A4E" transform="translate(685.0234375,651.7460327148438)"/>
<path d="M0 0 C12.54 0 25.08 0 38 0 C38 13.2 38 26.4 38 40 C25.46 40 12.92 40 0 40 C0 26.8 0 13.6 0 0 Z " fill="#57AEB4" transform="translate(736,660)"/>
<path d="M0 0 C12.54 0 25.08 0 38 0 C38 12.87 38 25.74 38 39 C25.46 39 12.92 39 0 39 C0 26.13 0 13.26 0 0 Z " fill="#C5C0DA" transform="translate(736,708)"/>
<path d="M0 0 C12.21 0 24.42 0 37 0 C37 12.54 37 25.08 37 38 C24.79 38 12.58 38 0 38 C0 25.46 0 12.92 0 0 Z " fill="#F17B5B" transform="translate(689,661)"/>
<path d="M0 0 C-7.34542279 3.98085271 -15.69119395 4.18979891 -23.875 4.7109375 C-27.40567792 5.03752521 -30.68931983 5.74019327 -34.09765625 6.6953125 C-36 7 -36 7 -40 6 C-37.03 5.34 -34.06 4.68 -31 4 C-31.33 3.34 -31.66 2.68 -32 2 C-30.44152344 2.03480469 -30.44152344 2.03480469 -28.8515625 2.0703125 C-21.70462498 2.18013339 -15.05605999 2.12282182 -8.0625 0.4453125 C-5.35348954 -0.13958749 -2.7589848 -0.14520973 0 0 Z " fill="#A3A6A8" transform="translate(825,624)"/>
<path d="M0 0 C0.33 0 0.66 0 1 0 C1.59932904 8.54043886 -0.60751107 15.8933076 -3 24 C-3.33 24 -3.66 24 -4 24 C-3.85780436 21.79142945 -3.71108153 19.58315013 -3.5625 17.375 C-3.44068359 15.53035156 -3.44068359 15.53035156 -3.31640625 13.6484375 C-3.03336056 10.38467612 -2.58961047 7.22056141 -2 4 C-1.34 4 -0.68 4 0 4 C0 2.68 0 1.36 0 0 Z " fill="#5F6468" transform="translate(838,545)"/>
<path d="M0 0 C0.33 0 0.66 0 1 0 C1.05416741 2.72943537 1.09375225 5.45778564 1.125 8.1875 C1.15013672 9.34088867 1.15013672 9.34088867 1.17578125 10.51757812 C1.21266851 14.8149434 0.9958504 18.07901831 -1 22 C-1.33 22 -1.66 22 -2 22 C-1.85856168 19.2705414 -1.71200471 16.54151877 -1.5625 13.8125 C-1.52318359 13.04357422 -1.48386719 12.27464844 -1.44335938 11.48242188 C-1.22492966 7.56748925 -0.91307892 3.82879312 0 0 Z " fill="#656B70" transform="translate(765,596)"/>
<path d="M0 0 C1.65 0 3.3 0 5 0 C4.34 0.66 3.68 1.32 3 2 C2.61289619 4.36730201 2.61289619 4.36730201 2.5 7 C2.22222222 11.77777778 2.22222222 11.77777778 0 14 C0 9.38 0 4.76 0 0 Z " fill="#F48264" transform="translate(689,662)"/>
<path d="M0 0 C3.3 0.33 6.6 0.66 10 1 C10 1.33 10 1.66 10 2 C7.75256955 2.53181175 5.50192898 3.05007126 3.25 3.5625 C1.37054687 3.99755859 1.37054687 3.99755859 -0.546875 4.44140625 C-4 5 -4 5 -8 4 C-5.03 3.34 -2.06 2.68 1 2 C0.67 1.34 0.34 0.68 0 0 Z " fill="#797D7F" transform="translate(793,626)"/>
<path d="M0 0 C1.2375 -0.04125 2.475 -0.0825 3.75 -0.125 C4.79414062 -0.15980469 4.79414062 -0.15980469 5.859375 -0.1953125 C8 0 8 0 12 2 C6.06 2.495 6.06 2.495 0 3 C0 2.01 0 1.02 0 0 Z " fill="#505558" transform="translate(766,630)"/>
<path d="M0 0 C0.33 0.66 0.66 1.32 1 2 C2.11375 1.95875 3.2275 1.9175 4.375 1.875 C8 2 8 2 10 4 C6.37 4 2.74 4 -1 4 C-0.67 2.68 -0.34 1.36 0 0 Z " fill="#D4CDE3" transform="translate(507,728)"/>
<path d="M0 0 C2.79872437 2.52788007 4.45773019 4.20411134 5 8 C3.68 7.67 2.36 7.34 1 7 C0.67 4.69 0.34 2.38 0 0 Z " fill="#595F63" transform="translate(822,477)"/>
<path d="M0 0 C0.99 0 1.98 0 3 0 C1.8141763 3.37503669 0.72426311 5.64722731 -2 8 C-1.125 2.25 -1.125 2.25 0 0 Z " fill="#495156" transform="translate(826,580)"/>
<path d="M0 0 C7.75 0.75 7.75 0.75 10 3 C7.03 3 4.06 3 1 3 C0.67 2.01 0.34 1.02 0 0 Z " fill="#666C6F" transform="translate(763,436)"/>
</svg>
